<svg id="Layer_1" enable-background="new 0 0 512 512"  viewBox="0 0 512 512" xmlns="http://www.w3.org/2000/svg"><g clip-rule="evenodd" fill-rule="evenodd"><path d="m393.457 79.94c75.918 75.918 75.918 198.997.001 274.914l-131.802 131.801c-3.124 3.124-8.189 3.124-11.312 0l-131.801-131.801c-75.917-75.917-75.917-198.997 0-274.914 75.917-75.917 198.996-75.917 274.914 0z" fill="#e4404d"/><path d="m247 483.311-128.457-128.457c-75.917-75.917-75.917-198.997 0-274.914 32.405-32.405 73.404-50.966 115.659-55.707 50.612-.672 101.435 18.288 140.054 56.907 75.918 75.918 75.918 198.997.001 274.914z" fill="#fd4755"/><circle cx="256" cy="217.397" fill="#eceff1" r="131.801"/><path d="m256 77.596c77.209 0 139.801 62.592 139.801 139.801s-62.592 139.801-139.801 139.801-139.801-62.591-139.801-139.801c0-77.209 62.592-139.801 139.801-139.801zm87.541 52.26c-48.346-48.346-126.736-48.346-175.082 0s-48.346 126.737 0 175.082c48.347 48.346 126.736 48.346 175.082 0s48.346-126.736 0-175.082z" fill="#bfc2c3"/><path d="m253.109 357.161c-75.873-1.54-136.91-63.521-136.91-139.764s61.036-138.224 136.91-139.764c75.873 1.54 136.91 63.522 136.91 139.764s-61.037 138.224-136.91 139.764zm0-263.53c-32.641-.757-65.524 11.317-90.432 36.225-48.346 48.346-48.346 126.737 0 175.082 24.909 24.908 57.791 36.982 90.432 36.225 32.64.757 65.524-11.317 90.432-36.225 48.346-48.346 48.346-126.736 0-175.082-24.908-24.908-57.792-36.983-90.432-36.225z" fill="#d4d7d9"/><path d="m230.288 132.263h51.423c4.418 0 8 3.582 8 8v43.423h43.423c4.418 0 8 3.582 8 8v51.423c0 4.418-3.582 8-8 8h-43.423v43.423c0 4.418-3.582 8-8 8h-51.423c-4.418 0-8-3.582-8-8v-43.423h-43.423c-4.418 0-8-3.582-8-8v-51.423c0-4.418 3.582-8 8-8h43.423v-43.423c0-4.418 3.582-8 8-8z" fill="#e4404d"/><path d="m331.532 251.109c-17.14 0-34.28 0-51.421 0v51.223c0 .067-.001.134-.002.2h-49.82c-4.418 0-8-3.582-8-8v-43.423h-43.423c-4.418 0-8-3.582-8-8v-51.423c0-.067.001-.134.003-.2h51.42v-51.223c0-.067.001-.133.003-.2h49.82c4.418 0 8 3.582 8 8v43.423h43.423c4.418 0 8 3.582 8 8v51.423c-.001.067-.002.133-.003.2z" fill="#fd4755"/></g></svg>