<svg clip-rule="evenodd" fill-rule="evenodd" height="512" stroke-linejoin="round" stroke-miterlimit="2" viewBox="0 0 267 267" width="512" xmlns="http://www.w3.org/2000/svg"><path d="m67.478 197.176c.7-.68 1.042-1.647.925-2.615-.117-.969-.679-1.827-1.52-2.321-10.034-5.894-18.154-11.977-23.026-17.532-2.732-3.116-4.46-5.919-4.46-8.424s1.728-5.309 4.46-8.425c4.872-5.555 12.992-11.637 23.026-17.532.841-.494 1.403-1.352 1.52-2.32s-.225-1.936-.925-2.615c-5.574-5.417-13.936-8.913-23.301-8.913-17.068 0-30.635 11.599-30.635 25.452 0 3.508.851 6.856 2.399 9.914 1.406 2.791 1.407 6.09.001 8.888-1.548 3.044-2.4 6.394-2.4 9.904 0 13.852 13.567 25.452 30.635 25.452 9.365 0 17.727-3.497 23.301-8.913z" fill="#f73645"/><path d="m109.625 211.422c-1.058-.352-2.222-.115-3.057.623s-1.214 1.865-.995 2.958c3.543 17.624 19.123 30.917 37.785 30.917 15.116 0 28.212-8.721 34.522-21.4.506-1.015.421-2.224-.22-3.159s-1.738-1.45-2.867-1.345c-5.004.467-10.158.704-15.417.704-15.378 0-32.907-3.687-49.751-9.298z" fill="#f73645"/><path d="m86.245 125.188c-.125 1.108.348 2.198 1.243 2.862s2.076.801 3.099.36c22.041-9.5 47.476-16.562 68.789-16.562 10.598 0 20.768.962 30.201 2.829.826.164 1.683-.013 2.377-.49s1.166-1.214 1.309-2.043c.195-1.129.294-2.254.294-3.372 0-7.295-4.114-13.356-11.338-17.497-9.691-5.554-25.316-7.598-42.945-4.356-16.711 3.073-31.591 10.196-41.217 18.725-6.849 6.069-11.061 12.909-11.812 19.544z" fill="#f73645"/><path d="m241.453 191.153c-1.574-2.647-2.478-5.737-2.478-9.037 0-7.084 4.167-13.204 10.196-16.006 2.708-1.194 4.285-4.002 3.895-6.905-.002-.011-.003-.022-.005-.033-1.393-9.579-5.594-18.045-12.038-25.269-1.249-1.4-9.755-9.306-15.029-12.311-17.246-9.828-40.526-15.994-66.618-15.994-35.789 0-82.845 19.092-107.85 37.263-6.657 4.837-11.777 9.639-14.831 13.991-2.376 3.387-3.548 6.602-3.548 9.432s1.172 6.044 3.548 9.431c3.054 4.353 8.174 9.154 14.831 13.991 25.005 18.171 72.061 37.264 107.85 37.264 34.861 0 65.234-10.141 81.397-28.055.014-.015.027-.03.04-.045 1.881-2.167 2.133-5.304.624-7.743z" fill="#ff5764"/><path d="m199.3 110.764c-1.434-.392-2.945.281-3.614 1.608-7.891 15.662-12.457 34.135-12.457 53.912 0 19.872 4.61 38.427 12.569 54.134.668 1.318 2.169 1.989 3.596 1.606 17.409-4.663 31.842-12.539 41.379-23.109.014-.015.027-.03.04-.045 1.881-2.167 2.133-5.304.624-7.743-1.558-2.621-2.462-5.711-2.462-9.011 0-7.084 4.167-13.204 10.196-16.006 2.708-1.194 4.285-4.002 3.895-6.905-.002-.011-.003-.022-.005-.033-1.393-9.579-5.594-18.045-12.038-25.269-1.249-1.4-9.755-9.306-15.029-12.311-7.774-4.43-16.769-8.117-26.694-10.828z" fill="#f6d2ba"/><circle cx="58.363" cy="65.568" fill="#fcd148" r="44.822"/><path d="m88.813 166.133c-2.725 0-4.689-2.763-4.689-5.915 0-3.151 1.964-5.914 4.689-5.914 1.724 0 3.125-1.4 3.125-3.125 0-1.724-1.401-3.125-3.125-3.125-5.905 0-10.939 5.334-10.939 12.164 0 6.831 5.034 12.165 10.939 12.165 1.724 0 3.125-1.401 3.125-3.125 0-1.725-1.401-3.125-3.125-3.125z" fill="#f6d2ba"/><path d="m119.771 182.043c-2.724 0-4.689-2.763-4.689-5.915 0-3.151 1.965-5.914 4.689-5.914 1.725 0 3.125-1.4 3.125-3.125 0-1.724-1.4-3.125-3.125-3.125-5.904 0-10.939 5.334-10.939 12.164 0 6.831 5.035 12.165 10.939 12.165 1.725 0 3.125-1.401 3.125-3.125 0-1.725-1.4-3.125-3.125-3.125z" fill="#f6d2ba"/><path d="m147.574 146.935c-2.724 0-4.689-2.763-4.689-5.915 0-3.151 1.965-5.914 4.689-5.914 1.725 0 3.125-1.4 3.125-3.125s-1.4-3.125-3.125-3.125c-5.905 0-10.939 5.334-10.939 12.164 0 6.831 5.034 12.165 10.939 12.165 1.725 0 3.125-1.401 3.125-3.125 0-1.725-1.4-3.125-3.125-3.125z" fill="#f6d2ba"/><path d="m173.103 189.339.189-1.948c.241-2.482-.578-4.951-2.254-6.798s-4.054-2.9-6.548-2.9h-8.579c-2.757 0-5.356 1.286-7.029 3.476-2.386 3.125-6.811 8.919-10.352 13.556-1.722 2.254-2.016 5.29-.758 7.833 1.257 2.543 3.848 4.152 6.685 4.152h9.508c9.9 0 18.182-7.517 19.138-17.371z" fill="#f73645"/><g fill="#2e3e48"><path d="m68.805 51.786c-2.085-3.248-5.966-5.493-10.442-5.493-6.784 0-12.131 5.117-12.131 11.2s5.347 11.2 12.131 11.2c3.159 0 5.882 2.118 5.882 4.95s-2.723 4.95-5.882 4.95c-1.924 0-3.653-.78-4.751-2.045-1.131-1.303-3.106-1.442-4.408-.312-1.303 1.131-1.443 3.106-.312 4.409 2.199 2.533 5.617 4.198 9.471 4.198 6.785 0 12.132-5.117 12.132-11.2s-5.347-11.2-12.132-11.2c-3.159 0-5.881-2.117-5.881-4.95 0-2.832 2.722-4.95 5.881-4.95 2.203 0 4.156 1.021 5.182 2.619.932 1.452 2.867 1.874 4.318.942 1.452-.931 1.874-2.866.942-4.318z"/><path d="m61.488 49.418v-6.684c0-1.724-1.4-3.125-3.125-3.125-1.724 0-3.125 1.401-3.125 3.125v6.684c0 1.725 1.401 3.125 3.125 3.125 1.725 0 3.125-1.4 3.125-3.125z"/><path d="m61.488 88.402v-6.684c0-1.725-1.4-3.125-3.125-3.125-1.724 0-3.125 1.4-3.125 3.125v6.684c0 1.725 1.401 3.125 3.125 3.125 1.725 0 3.125-1.4 3.125-3.125z"/><path d="m58.363 20.747c-24.737 0-44.821 20.083-44.821 44.821s20.084 44.822 44.821 44.822c24.738 0 44.822-20.084 44.822-44.822s-20.084-44.821-44.822-44.821zm0 6.25c21.289 0 38.572 17.283 38.572 38.571 0 21.289-17.283 38.572-38.572 38.572-21.288 0-38.571-17.283-38.571-38.572 0-21.288 17.283-38.571 38.571-38.571z"/><path d="m67.478 197.176c.7-.68 1.042-1.647.925-2.615-.117-.969-.679-1.827-1.52-2.321-10.034-5.894-18.154-11.977-23.026-17.532-2.732-3.116-4.46-5.919-4.46-8.424s1.728-5.309 4.46-8.425c4.872-5.555 12.992-11.637 23.026-17.532.841-.494 1.403-1.352 1.52-2.32s-.225-1.936-.925-2.615c-5.574-5.417-13.936-8.913-23.301-8.913-17.068 0-30.635 11.599-30.635 25.452 0 3.508.851 6.856 2.399 9.914 1.406 2.791 1.407 6.09.001 8.888-1.548 3.044-2.4 6.394-2.4 9.904 0 13.852 13.567 25.452 30.635 25.452 9.365 0 17.727-3.497 23.301-8.913zm-7.6-1.871c-4.269 2.846-9.745 4.534-15.701 4.534-13.301 0-24.385-8.407-24.385-19.202 0-2.509.617-4.9 1.728-7.085.002-.004.004-.008.006-.012 2.295-4.566 2.293-9.948-.006-14.512 0-.002-.001-.004-.002-.006-1.108-2.188-1.726-4.581-1.726-7.091 0-10.795 11.084-19.202 24.385-19.202 5.956 0 11.433 1.688 15.701 4.534-8.945 5.572-16.151 11.265-20.72 16.475-3.987 4.547-6.011 8.89-6.011 12.546s2.024 7.998 6.011 12.545c4.569 5.21 11.774 10.903 20.718 16.476z"/><path d="m109.625 211.422c-1.058-.352-2.222-.115-3.057.623s-1.214 1.865-.995 2.958c3.543 17.624 19.123 30.917 37.785 30.917 15.116 0 28.212-8.721 34.522-21.4.506-1.015.421-2.224-.22-3.159s-1.738-1.45-2.867-1.345c-5.004.467-10.158.704-15.417.704-15.378 0-32.907-3.687-49.751-9.298zm3.658 7.727c15.747 4.801 31.816 7.821 46.093 7.821 3.328 0 6.614-.092 9.85-.273-5.887 7.872-15.286 12.973-25.868 12.973-13.671 0-25.37-8.513-30.077-20.523z"/><path d="m86.245 125.188c-.125 1.108.348 2.198 1.243 2.862s2.076.801 3.099.36c22.041-9.5 47.476-16.562 68.789-16.562 10.598 0 20.768.962 30.201 2.829.826.164 1.683-.013 2.377-.49s1.166-1.214 1.309-2.043c.195-1.129.294-2.254.294-3.372 0-7.295-4.114-13.356-11.338-17.497-9.691-5.554-25.316-7.598-42.945-4.356-16.711 3.073-31.591 10.196-41.217 18.725-6.849 6.069-11.061 12.909-11.812 19.544zm101.03-17.292c-8.807-1.517-18.18-2.298-27.899-2.298-20.123 0-43.81 6.012-65.134 14.528l-.003.004c1.687-3.377 4.442-6.688 7.963-9.808 8.913-7.898 22.728-14.411 38.202-17.256 15.878-2.92 29.979-1.371 38.707 3.632 4.764 2.73 7.827 6.501 8.164 11.198z"/><path d="m88.813 166.133c-2.725 0-4.689-2.763-4.689-5.915 0-3.151 1.964-5.914 4.689-5.914 1.724 0 3.125-1.4 3.125-3.125 0-1.724-1.401-3.125-3.125-3.125-5.905 0-10.939 5.334-10.939 12.164 0 6.831 5.034 12.165 10.939 12.165 1.724 0 3.125-1.401 3.125-3.125 0-1.725-1.401-3.125-3.125-3.125z"/><path d="m119.771 182.043c-2.724 0-4.689-2.763-4.689-5.915 0-3.151 1.965-5.914 4.689-5.914 1.725 0 3.125-1.4 3.125-3.125 0-1.724-1.4-3.125-3.125-3.125-5.904 0-10.939 5.334-10.939 12.164 0 6.831 5.035 12.165 10.939 12.165 1.725 0 3.125-1.401 3.125-3.125 0-1.725-1.4-3.125-3.125-3.125z"/><path d="m147.574 146.935c-2.724 0-4.689-2.763-4.689-5.915 0-3.151 1.965-5.914 4.689-5.914 1.725 0 3.125-1.4 3.125-3.125s-1.4-3.125-3.125-3.125c-5.905 0-10.939 5.334-10.939 12.164 0 6.831 5.034 12.165 10.939 12.165 1.725 0 3.125-1.401 3.125-3.125 0-1.725-1.4-3.125-3.125-3.125z"/><path d="m173.103 189.339.189-1.948c.241-2.482-.578-4.951-2.254-6.798s-4.054-2.9-6.548-2.9h-8.579c-2.757 0-5.356 1.286-7.029 3.476-2.386 3.125-6.811 8.919-10.352 13.556-1.722 2.254-2.016 5.29-.758 7.833 1.257 2.543 3.848 4.152 6.685 4.152h9.508c9.9 0 18.182-7.517 19.138-17.371zm-6.032-2.552-.189 1.949c-.645 6.651-6.235 11.724-12.917 11.724-3.245 0-6.585 0-9.508 0-.459 0-.879-.26-1.083-.672s-.156-.904.123-1.27l10.352-13.555c.491-.643 1.253-1.02 2.061-1.02h8.579c.732 0 1.429.309 1.921.851.492.541.732 1.265.661 1.993z"/><path d="m241.453 191.153c-1.574-2.647-2.478-5.737-2.478-9.037 0-7.084 4.167-13.204 10.196-16.006 2.708-1.194 4.285-4.002 3.895-6.905-.002-.011-.003-.022-.005-.033-1.393-9.579-5.594-18.045-12.038-25.269-1.249-1.4-9.755-9.306-15.029-12.311-17.246-9.828-40.526-15.994-66.618-15.994-35.789 0-82.845 19.092-107.85 37.263-6.657 4.837-11.777 9.639-14.831 13.991-2.376 3.387-3.548 6.602-3.548 9.432s1.172 6.044 3.548 9.431c3.054 4.353 8.174 9.154 14.831 13.991 25.005 18.171 72.061 37.264 107.85 37.264 34.861 0 65.234-10.141 81.397-28.055.014-.015.027-.03.04-.045 1.881-2.167 2.133-5.304.624-7.743zm-5.362 3.211c.01.017.02.034.03.051.063.101.061.228-.003.325-15.24 16.862-43.952 25.98-76.742 25.98-34.577 0-80.017-18.514-104.176-36.07-5.986-4.349-10.643-8.61-13.388-12.524-1.491-2.125-2.415-4.067-2.415-5.842 0-1.776.924-3.718 2.415-5.842 2.745-3.914 7.402-8.175 13.388-12.525 24.159-17.555 69.599-36.069 104.176-36.069 24.874 0 47.083 5.806 63.524 15.174 4.725 2.693 12.34 9.787 13.459 11.042 5.609 6.287 9.294 13.643 10.513 21.979.017.142-.061.278-.192.334-.024.011-.047.021-.07.032-8.205 3.779-13.885 12.084-13.885 21.707 0 4.473 1.229 8.662 3.366 12.248z"/><path d="m199.3 110.764c-1.434-.392-2.945.281-3.614 1.608-7.891 15.662-12.457 34.135-12.457 53.912 0 19.872 4.61 38.427 12.569 54.134.668 1.318 2.169 1.989 3.596 1.606 17.409-4.663 31.842-12.539 41.379-23.109.014-.015.027-.03.04-.045 1.881-2.167 2.133-5.304.624-7.743-1.558-2.621-2.462-5.711-2.462-9.011 0-7.084 4.167-13.204 10.196-16.006 2.708-1.194 4.285-4.002 3.895-6.905-.002-.011-.003-.022-.005-.033-1.393-9.579-5.594-18.045-12.038-25.269-1.249-1.4-9.755-9.306-15.029-12.311-7.774-4.43-16.769-8.117-26.694-10.828zm.838 6.735c8.406 2.482 16.065 5.707 22.762 9.523 4.725 2.693 12.34 9.787 13.459 11.042 5.609 6.287 9.294 13.643 10.513 21.979.017.142-.061.278-.192.334-.024.011-.047.021-.07.032-8.205 3.779-13.885 12.084-13.885 21.707 0 4.473 1.229 8.662 3.366 12.248l.03.051c.063.101.061.228-.003.325-8.387 9.282-20.881 16.193-35.872 20.557-6.848-14.386-10.767-31.139-10.767-49.013 0-17.779 3.877-34.448 10.658-48.785z"/></g></svg>