<?xml version="1.0" encoding="UTF-8"?>
<svg version="1.1" xmlns="http://www.w3.org/2000/svg" width="512" height="512">
<path d="M0 0 C0.99442399 -0.00445784 1.98884799 -0.00891569 3.01340604 -0.01350862 C4.65651639 -0.01323207 4.65651639 -0.01323207 6.33282089 -0.01294994 C7.49425763 -0.01662663 8.65569437 -0.02030332 9.85232615 -0.02409142 C13.08148872 -0.03321947 16.31062142 -0.03782822 19.53979468 -0.04048073 C23.02048899 -0.04438374 26.50116857 -0.05396204 29.98185349 -0.0626936 C38.39004885 -0.0824575 46.79824542 -0.09252385 55.20645821 -0.10142139 C59.16543731 -0.10580416 63.12441506 -0.11117098 67.0833931 -0.11641026 C80.24270093 -0.133422 93.40200793 -0.1479166 106.56132507 -0.155159 C109.97634762 -0.15706891 113.39137015 -0.15898924 116.80639267 -0.16094494 C118.07958147 -0.16167055 118.07958147 -0.16167055 119.37849125 -0.16241082 C133.13114824 -0.17071273 146.88371829 -0.1960526 160.63633731 -0.22852562 C174.75371276 -0.26158835 188.87104402 -0.27960702 202.9884584 -0.28280324 C210.91576258 -0.284969 218.84293998 -0.29372735 226.77020645 -0.31926441 C233.52080637 -0.34096066 240.27124869 -0.34902716 247.02187952 -0.33929763 C250.46584396 -0.33474982 253.90948317 -0.33666655 257.35340309 -0.35605907 C261.08859904 -0.37368655 264.82296693 -0.36671573 268.55816269 -0.35352612 C269.6446467 -0.36449536 270.73113072 -0.37546461 271.85053849 -0.38676625 C278.19516033 -0.33258678 282.03607015 0.36255525 287.19945908 4.13422108 C290.55997533 7.84847589 292.32792087 10.22798092 292.31298447 15.21674061 C292.31290894 16.05746113 292.3128334 16.89818165 292.31275558 17.76437855 C292.3075943 18.67275471 292.30243301 19.58113087 292.29711533 20.51703358 C292.2949929 21.91113956 292.2949929 21.91113956 292.29282761 23.33340931 C292.2872196 26.30871232 292.27466575 29.28394072 292.26195908 32.25922108 C292.25694511 34.27354291 292.25238202 36.28786592 292.2482872 38.30218983 C292.23724757 43.24622909 292.21997756 48.19021243 292.19945908 53.13422108 C293.38216888 53.12977985 294.56487869 53.12533863 295.78342819 53.12076283 C306.95016696 53.08015213 318.11689067 53.05020566 329.28368664 53.03059673 C335.0241155 53.02017659 340.76448455 53.00604967 346.504879 52.98334217 C352.04862236 52.96155076 357.59230833 52.94963915 363.13609123 52.94446659 C365.24709666 52.94078214 367.35809909 52.93358739 369.46907997 52.92276096 C372.43453161 52.90816239 375.39974855 52.90624663 378.36523056 52.9071703 C379.23054398 52.89997974 380.09585739 52.89278919 380.98739243 52.88538074 C390.79410101 52.91825582 398.64441771 54.65940025 406.19945908 61.13422108 C411.7196094 67.92231171 415.96155326 75.67040492 420.26195908 83.25922108 C421.24891368 84.98537777 422.23588044 86.71152772 423.22373581 88.43716908 C423.8955676 89.61110587 424.56684172 90.785362 425.23756027 91.95993519 C429.10707333 98.73439968 433.02654346 105.48010216 436.99853134 112.19501209 C440.01856558 117.31475794 442.92606702 122.46397309 445.69555283 127.72406483 C452.30129519 140.07333023 456.44137578 147.71804619 470.19945908 152.13422108 C472.5858772 153.07811819 474.94378116 154.07189883 477.29809189 155.09320545 C478.8492193 155.76563401 480.41081468 156.41462718 481.98363876 157.0346117 C488.00747219 159.54970353 492.24735316 163.23000925 495.19945908 169.13422108 C495.30151535 170.98082394 495.3389483 172.83112657 495.3466301 174.6805315 C495.35736305 176.4490749 495.35736305 176.4490749 495.36831284 178.25334644 C495.37234619 180.20374584 495.37234619 180.20374584 495.37646103 182.19354725 C495.38272504 183.57163127 495.38937178 184.9497136 495.39637375 186.32779408 C495.41742846 190.860914 495.42777914 195.39403431 495.43774033 199.92718983 C495.4417877 201.48781636 495.44590462 203.04844271 495.45009041 204.60906887 C495.46914715 211.94268379 495.48337575 219.27628862 495.49170238 226.60992354 C495.50146954 235.07257747 495.52777322 243.53496946 495.56820327 251.99753112 C495.59838338 258.53945485 495.61317314 265.08130361 495.61648339 271.62329561 C495.61883224 275.5298539 495.62777045 279.43613253 495.65294456 283.34261608 C495.67626295 287.02069696 495.6804437 290.69831484 495.67018318 294.37645054 C495.66945344 296.3634917 495.68851946 298.35050954 495.70824814 300.33745289 C495.66866734 307.13846242 495.4242619 311.67881037 491.19945908 317.13422108 C485.53819977 321.52458544 481.4555915 322.23398697 474.49633408 322.06390858 C472.94296729 322.05300376 471.3895754 322.0452933 469.83617783 322.04047108 C467.39384536 322.0326258 464.95754403 322.00947743 462.51635361 321.93207264 C452.85506634 321.35072383 452.85506634 321.35072383 444.64379501 325.5267992 C442.88164659 328.3294986 441.55082336 331.11843722 440.19945908 334.13422108 C431.95125185 344.58906971 418.18103919 351.76973398 405.19945908 354.13422108 C387.53114219 355.77340138 371.61900551 352.93872232 357.31664658 341.91156483 C349.94294453 335.57259209 349.94294453 335.57259209 347.82198715 331.46931934 C344.87461866 325.61473366 344.87461866 325.61473366 339.60009384 322.15840626 C336.45581748 321.84781432 333.47279878 321.86996957 330.31664658 322.01703358 C329.18421524 322.02226032 328.05178391 322.02748707 326.88503647 322.0328722 C323.27865161 322.0565246 319.67928861 322.1532675 316.07445908 322.25922108 C312.46358245 322.33329527 308.85397649 322.39143415 305.24245834 322.42129993 C302.99939391 322.4430598 300.75638961 322.4919362 298.51461411 322.57101917 C290.08582371 322.70233472 290.08582371 322.70233472 286.97338486 319.73920155 C285.19945908 317.13422108 285.19945908 317.13422108 285.19945908 315.13422108 C278.92945908 315.13422108 272.65945908 315.13422108 266.19945908 315.13422108 C265.53945908 316.78422108 264.87945908 318.43422108 264.19945908 320.13422108 C260.99107622 322.27314298 260.23293914 322.37749922 256.55791855 322.33867359 C255.60469711 322.33394032 254.65147568 322.32920704 253.66936874 322.32433033 C252.62516769 322.30920902 251.58096664 322.29408772 250.50512314 322.27850819 C248.22275423 322.26270595 245.94038524 322.24691357 243.6580162 322.23112965 C241.839324 322.21307679 241.839324 322.21307679 239.98389053 322.19465923 C233.57408399 322.13837384 227.16416163 322.13873873 220.75414658 322.1283617 C212.59191684 322.11207754 204.4305623 322.07791188 196.26879501 321.98700428 C189.67740204 321.91379599 183.08740703 321.89835278 176.49553299 321.91626644 C173.9836545 321.9131425 171.47171951 321.89022667 168.96020889 321.84712505 C155.83546885 320.96123405 155.83546885 320.96123405 144.18468857 325.53342152 C142.37402277 328.37251605 141.30293167 330.96912464 140.19945908 334.13422108 C132.07582764 344.61883273 118.10111042 351.78429235 105.19945908 354.13422108 C87.53114219 355.77340138 71.61900551 352.93872232 57.31664658 341.91156483 C49.67204581 335.33970776 49.67204581 335.33970776 48.12108994 331.38348866 C46.52736716 327.72333624 45.29627817 325.69856397 42.19945908 323.13422108 C34.84917726 321.15676584 26.79224975 321.96141747 19.26195908 322.19672108 C16.10996982 322.25823154 12.9589978 322.30378566 9.80649948 322.3279314 C7.85051453 322.34674515 5.89456706 322.38873061 3.93970871 322.45772266 C-2.18044172 322.56533823 -6.70775344 321.65690359 -11.80054092 318.13422108 C-16.6145174 313.07337401 -16.95009846 308.89274729 -16.95444107 302.16963673 C-16.95882332 301.34910169 -16.96320558 300.52856665 -16.96772063 299.68316692 C-16.98111262 296.92409218 -16.9872883 294.16504937 -16.99341202 291.40594959 C-17.00131244 289.4317253 -17.00958135 287.45750246 -17.01819229 285.48328114 C-17.04441132 278.9932439 -17.05971615 272.5032002 -17.07397842 266.01312733 C-17.07933746 263.78100486 -17.08471496 261.54888244 -17.09011078 259.31676006 C-17.11173605 250.03572524 -17.13047508 240.75469217 -17.14173317 231.47363853 C-17.15798907 218.15914768 -17.19121076 204.84494787 -17.24813402 191.53056675 C-17.28677335 182.17510707 -17.30635852 172.81972545 -17.31165373 163.46418804 C-17.31531438 157.87260185 -17.32741196 152.28132608 -17.35975647 146.68982601 C-17.38973268 141.43256032 -17.39618634 136.17579461 -17.38437271 130.9184618 C-17.38415112 128.9866643 -17.39252615 127.05484428 -17.41002655 125.12312603 C-17.43258684 122.49007154 -17.42448551 119.85885052 -17.40854263 117.22578907 C-17.42936576 116.07321475 -17.42936576 116.07321475 -17.45060956 114.89735609 C-17.39274963 111.03192399 -17.11444848 109.46019097 -14.38754082 106.62849808 C-11.80054092 105.13422108 -11.80054092 105.13422108 -9.80054092 105.13422108 C-9.80054092 98.86422108 -9.80054092 92.59422108 -9.80054092 86.13422108 C-11.45054092 85.80422108 -13.10054092 85.47422108 -14.80054092 85.13422108 C-17.23331176 81.48506482 -17.06425096 79.7210533 -17.09106827 75.37128162 C-17.09778549 74.68797779 -17.10450272 74.00467396 -17.11142349 73.30066395 C-17.13042758 71.04068199 -17.13432914 68.78099674 -17.13647842 66.52093983 C-17.14290578 64.94776252 -17.1496341 63.37458642 -17.15665054 61.80141163 C-17.16863009 58.50191955 -17.17233079 55.2025322 -17.17114639 51.90301991 C-17.17094341 47.68284309 -17.19822023 43.46334129 -17.23269081 39.24332428 C-17.25497396 35.99271555 -17.25898348 32.74226873 -17.25792694 29.49159145 C-17.26028175 27.93630941 -17.26909859 26.38102282 -17.28459167 24.82581615 C-17.30427718 22.64518455 -17.29840481 20.46600105 -17.28638077 18.28534412 C-17.2892308 17.04640903 -17.29208084 15.80747395 -17.29501724 14.53099537 C-16.53899737 9.33756388 -14.06780972 6.27785389 -10.23804092 2.82172108 C-6.75020903 0.40706823 -4.13462903 0.00859065 0 0 Z " fill="#000001" transform="translate(16.800540924072266,78.86577892303467)"/>
<path d="M0 0 C1.44941239 -0.00391162 1.44941239 -0.00391162 2.92810583 -0.00790226 C4.00230355 -0.00567154 5.07650126 -0.00344082 6.18325043 -0.0011425 C7.31454329 -0.00270249 8.44583615 -0.00426248 9.61141062 -0.00586975 C13.43399482 -0.00988508 17.25653989 -0.00668804 21.07912445 -0.00355339 C23.80667962 -0.00435668 26.53423308 -0.00665059 29.26178741 -0.00886345 C35.92021742 -0.01332192 42.57863618 -0.01234434 49.23706663 -0.00945081 C54.64607484 -0.00719708 60.05507989 -0.00688412 65.46408844 -0.00797462 C66.61661472 -0.00820447 66.61661472 -0.00820447 67.79242435 -0.00843897 C69.35306609 -0.00875868 70.91370782 -0.00908289 72.47434956 -0.00941156 C87.12597046 -0.01226658 101.77758512 -0.00897899 116.429205 -0.00361119 C129.01482581 0.00085687 141.6004374 0.00008094 154.18605804 -0.00452995 C168.78343594 -0.00987533 183.38080835 -0.01199188 197.97818708 -0.00891769 C199.53325113 -0.00859912 201.08831517 -0.00828475 202.64337921 -0.00797462 C203.40860206 -0.00782035 204.1738249 -0.00766607 204.96223632 -0.00750712 C210.36792501 -0.00664186 215.77361024 -0.00810505 221.1792984 -0.01045418 C227.76246264 -0.01325198 234.34561495 -0.01251435 240.92877781 -0.00717343 C244.29086238 -0.00453614 247.65291043 -0.00406556 251.01499748 -0.00682259 C254.65142433 -0.00953086 258.28779408 -0.00615693 261.92421722 -0.0011425 C263.5355138 -0.00448858 263.5355138 -0.00448858 265.17936182 -0.00790226 C266.14563674 -0.00529452 267.11191167 -0.00268677 268.10746765 0 C268.94800611 0.00016235 269.78854457 0.0003247 270.65455389 0.00049198 C272.55373383 0.12584114 272.55373383 0.12584114 273.55373383 1.12584114 C273.65011459 2.48111849 273.67745328 3.84138381 273.67678165 5.20008373 C273.6787727 6.08337386 273.68076375 6.96666399 273.68281513 7.87672049 C273.67990229 8.85821757 273.67698945 9.83971464 273.67398834 10.85095406 C273.67526998 12.40194381 273.67526998 12.40194381 273.67657751 13.9842667 C273.67823541 17.47752027 273.67270589 20.97072669 273.66725922 24.46397591 C273.66697739 26.95670254 273.667135 29.44942925 273.66770172 31.94215584 C273.66793004 37.32349005 273.6650786 42.70480935 273.65946388 48.08613968 C273.65135113 55.86672411 273.64873389 63.64730268 273.64747589 71.42789089 C273.64528502 84.05011135 273.63862398 96.67232536 273.62917328 109.29454231 C273.62000007 121.5588649 273.61291879 133.82318574 273.60866547 146.08751106 C273.60827138 147.2206818 273.60827138 147.2206818 273.60786933 148.37674487 C273.60656434 152.16644426 273.60530062 155.95614365 273.60405743 159.74584305 C273.59368372 191.2058471 273.57599032 222.66584315 273.55373383 254.12584114 C256.59464816 254.38300269 239.63617226 254.57687247 222.67558193 254.69577503 C214.80007374 254.75245602 206.92577805 254.82970115 199.05104828 254.95567513 C192.18591404 255.06544583 185.32165786 255.13631043 178.45567042 255.16081458 C174.82084427 255.17513668 171.18852953 255.20868786 167.55451012 255.28887177 C163.4931505 255.37775481 159.43613142 255.37972334 155.37380219 255.37462044 C153.57413246 255.43394249 153.57413246 255.43394249 151.73810577 255.49446297 C148.33993567 255.44824852 145.74793744 255.29603844 142.55373383 254.12584114 C140.15575688 251.54367729 138.60589578 249.04291244 137.00659275 245.90933132 C130.92032397 234.24882589 117.35364066 228.31505842 105.55373383 224.12584114 C93.80649724 220.91465882 79.49355892 222.13516565 68.55373383 227.12584114 C67.30463226 227.61697395 67.30463226 227.61697395 66.03029633 228.11802864 C54.53732761 233.08502143 45.10351192 243.02628495 39.55373383 254.12584114 C24.70373383 254.12584114 9.85373383 254.12584114 -5.44626617 254.12584114 C-5.46084869 249.32496956 -5.47543121 244.52409798 -5.49045563 239.57774544 C-5.54070449 223.74783152 -5.60713048 207.91801639 -5.68198109 192.08820057 C-5.72698268 182.48690766 -5.7663872 172.88565221 -5.79270172 163.28428841 C-5.81564655 154.91757054 -5.84900497 146.55097077 -5.89496773 138.1843465 C-5.91894756 133.75260739 -5.93764506 129.32098559 -5.94388008 124.88918304 C-5.94990952 120.72031616 -5.96983114 116.5517496 -6.00054169 112.3829937 C-6.00935642 110.850733 -6.01303742 109.31843311 -6.01127434 107.78614807 C-6.00962989 105.69803485 -6.02624778 103.6108463 -6.04753876 101.52285957 C-6.0544522 99.76822663 -6.0544522 99.76822663 -6.06150532 97.97814655 C-6.22262333 95.15056859 -6.22262333 95.15056859 -7.72118664 93.28852749 C-9.67973659 91.8258677 -9.67973659 91.8258677 -13.44626617 91.12584114 C-13.44626617 84.52584114 -13.44626617 77.92584114 -13.44626617 71.12584114 C-11.46626617 70.13584114 -9.48626617 69.14584114 -7.44626617 68.12584114 C-6.05807606 65.3494609 -6.29073696 63.05444987 -6.25681305 59.94786263 C-6.24009552 58.6498925 -6.22337799 57.35192238 -6.20615387 56.01461983 C-6.19947189 55.31917501 -6.19278992 54.6237302 -6.18590546 53.9072113 C-6.16490055 51.73497781 -6.13787771 49.56289424 -6.10923004 47.39074898 C-6.03935074 41.9970613 -5.97992402 36.60326732 -5.92020416 31.2094593 C-5.86935061 26.65113196 -5.81455564 22.09288598 -5.7543869 17.53467178 C-5.7277304 15.38917745 -5.70696756 13.24367585 -5.68637848 11.09811592 C-5.66966095 9.80329796 -5.65294342 8.50848 -5.6357193 7.17442513 C-5.62319122 6.02796013 -5.61066315 4.88149513 -5.59775543 3.70028877 C-5.34627036 -0.57351361 -3.85441204 0.00074449 0 0 Z " fill="#B2D9FD" transform="translate(20.446266174316406,93.87415885925293)"/>
<path d="M0 0 C13.53 0 27.06 0 41 0 C41.02578125 5.63320312 41.0515625 11.26640625 41.078125 17.0703125 C41.10329745 20.64327443 41.12963331 24.21615205 41.16015625 27.7890625 C41.20847192 33.45768535 41.25252375 39.12611298 41.27099609 44.79492188 C41.28616227 49.36631362 41.320607 53.93719404 41.36830902 58.508358 C41.38312324 60.25057399 41.39104104 61.99286299 41.39188385 63.73514175 C41.3942552 66.17961105 41.42134639 68.62266919 41.45410156 71.06689453 C41.4490712 71.78403122 41.44404083 72.50116791 41.43885803 73.24003601 C41.54289301 78.27223375 42.87359139 81.10498116 46 85 C49.93471099 88.55083675 52.8093329 90.14690942 58.11386108 90.07073975 C58.95114746 90.06174149 59.78843384 90.05274323 60.65109253 90.04347229 C61.56722321 90.02880417 62.48335388 90.01413605 63.42724609 89.99902344 C65.43565268 89.97624289 67.44406581 89.95403338 69.45248413 89.93231201 C70.52125164 89.91952965 71.59001915 89.90674728 72.69117355 89.89357758 C79.60173407 89.82264713 86.51272391 89.81671669 93.42358971 89.79972458 C99.46440366 89.78123663 105.50330068 89.74021427 111.54345703 89.64697266 C164.37064849 88.86735899 164.37064849 88.86735899 187 104 C188.88885195 105.88885195 188.12010635 108.64051759 188.12442017 111.15324402 C188.12082489 112.0379689 188.11722961 112.92269379 188.11352539 113.83422852 C188.11367142 114.76096375 188.11381744 115.68769897 188.1139679 116.64251709 C188.11326838 119.72133687 188.10547421 122.80009697 188.09765625 125.87890625 C188.09579221 128.00740018 188.09436824 130.13589453 188.09336853 132.26438904 C188.08954228 137.8786232 188.07971108 143.49283168 188.06866455 149.10705566 C188.05845273 154.83113253 188.0538714 160.55521353 188.04882812 166.27929688 C188.03808891 177.51954256 188.0210112 188.75976915 188 200 C183.28652262 200.27335034 178.57770561 200.47209484 173.8581543 200.60424805 C172.25609988 200.65934644 170.65459336 200.73426105 169.05444336 200.82983398 C163.85051594 201.13270807 159.09463887 201.21048248 154 200 C150.52458603 196.7616226 148.95581933 193.25923249 147 189 C138.39680352 178.37387789 125.53092086 171.03629892 112 169 C100.78818938 168.23987725 90.37871997 168.26529693 80 173 C78.75089844 173.49113281 78.75089844 173.49113281 77.4765625 173.9921875 C65.14111663 179.32327925 58.07946239 188.87513052 51 200 C34.17 200 17.34 200 0 200 C0 134 0 68 0 0 Z " fill="#C3E1FE" transform="translate(309,148)"/>
<path d="M0 0 C17.21422628 13.93306161 29.04820026 30.72885813 33.5625 52.6875 C33.98259166 56.92657605 34.04045839 61.11738639 34 65.375 C33.99097656 66.51694824 33.98195312 67.65889648 33.97265625 68.83544922 C33.51753282 91.16494257 24.45425656 110.14591506 9.16015625 126.2109375 C-8.2310013 142.72830918 -29.69406519 149.40567576 -53.30078125 148.87109375 C-74.98229613 148.06844397 -95.10555306 138.91761907 -110.05859375 123.21484375 C-118.47360331 113.89396914 -124.18035629 103.4537722 -128.4375 91.6875 C-128.97890625 90.20830078 -128.97890625 90.20830078 -129.53125 88.69921875 C-135.33625059 68.83859172 -132.32265323 46.85245068 -123.0625 28.6875 C-111.13065432 8.05001584 -92.80149171 -6.79188033 -69.8203125 -13.34375 C-45.61261807 -18.87108826 -20.26503142 -14.5834916 0 0 Z " fill="#FCDE77" transform="translate(203.4375,154.3125)"/>
<path d="M0 0 C17.21422628 13.93306161 29.04820026 30.72885813 33.5625 52.6875 C33.98259166 56.92657605 34.04045839 61.11738639 34 65.375 C33.99097656 66.51694824 33.98195312 67.65889648 33.97265625 68.83544922 C33.51753282 91.16494257 24.45425656 110.14591506 9.16015625 126.2109375 C-8.2310013 142.72830918 -29.69406519 149.40567576 -53.30078125 148.87109375 C-74.98229613 148.06844397 -95.10555306 138.91761907 -110.05859375 123.21484375 C-118.47360331 113.89396914 -124.18035629 103.4537722 -128.4375 91.6875 C-128.97890625 90.20830078 -128.97890625 90.20830078 -129.53125 88.69921875 C-135.33625059 68.83859172 -132.32265323 46.85245068 -123.0625 28.6875 C-111.13065432 8.05001584 -92.80149171 -6.79188033 -69.8203125 -13.34375 C-45.61261807 -18.87108826 -20.26503142 -14.5834916 0 0 Z M-94.4375 16.6875 C-95.18773438 17.33203125 -95.93796875 17.9765625 -96.7109375 18.640625 C-107.49385418 28.57710112 -115.59080514 43.59981678 -116.62304688 58.33642578 C-116.70447065 61.14405672 -116.71066399 63.94136598 -116.6875 66.75 C-116.69523437 67.69166016 -116.70296875 68.63332031 -116.7109375 69.60351562 C-116.66860863 84.81016345 -110.89858711 97.95048538 -101.4375 109.6875 C-100.78394531 110.53699219 -100.13039063 111.38648438 -99.45703125 112.26171875 C-88.38063902 125.56624404 -71.02122588 132.34680033 -54.22265625 133.89111328 C-35.29516046 135.32344275 -18.06763665 129.44690078 -3.25 117.5 C8.07642135 106.97586683 17.84364645 91.09495452 18.68847656 75.33789062 C19.28632931 54.9806263 16.32532785 37.76123029 2.25 22.25 C-10.64456725 8.69147879 -27.87663074 -0.00466411 -46.73706055 -0.78735352 C-64.54437365 -0.99680347 -81.00935744 4.87073455 -94.4375 16.6875 Z " fill="#030303" transform="translate(203.4375,154.3125)"/>
<path d="M0 0 C5.85099889 4.97247053 10.00728903 10.11414645 13.3515625 17.0234375 C13.69058594 17.70664062 14.02960938 18.38984375 14.37890625 19.09375 C18.20681582 28.37246167 17.60007343 39.67834129 14.2265625 48.9609375 C8.30760692 62.37392087 0.77434412 69.86999998 -12.59765625 75.859375 C-22.3565495 79.5829988 -33.46439995 79.32071177 -43.05859375 75.27734375 C-57.56899825 68.25194429 -64.3534346 59.47677856 -69.9609375 44.5234375 C-72.19962367 33.12648973 -70.49272744 21.22438675 -64.5234375 11.2109375 C-57.86271696 1.64397356 -48.62627576 -5.58439372 -37.21484375 -8.625 C-23.48686536 -10.50554498 -11.18847594 -8.35010151 0 0 Z " fill="#3C6B90" transform="translate(438.6484375,339.9765625)"/>
<path d="M0 0 C5.85099889 4.97247053 10.00728903 10.11414645 13.3515625 17.0234375 C13.69058594 17.70664062 14.02960938 18.38984375 14.37890625 19.09375 C18.20681582 28.37246167 17.60007343 39.67834129 14.2265625 48.9609375 C8.30760692 62.37392087 0.77434412 69.86999998 -12.59765625 75.859375 C-22.3565495 79.5829988 -33.46439995 79.32071177 -43.05859375 75.27734375 C-57.56899825 68.25194429 -64.3534346 59.47677856 -69.9609375 44.5234375 C-72.19962367 33.12648973 -70.49272744 21.22438675 -64.5234375 11.2109375 C-57.86271696 1.64397356 -48.62627576 -5.58439372 -37.21484375 -8.625 C-23.48686536 -10.50554498 -11.18847594 -8.35010151 0 0 Z " fill="#3C6B90" transform="translate(138.6484375,339.9765625)"/>
<path d="M0 0 C35.27113973 -0.02286523 70.54227797 -0.04049764 105.81342354 -0.05106533 C109.97302782 -0.05231611 114.13263208 -0.05361042 118.29223633 -0.05493164 C119.12037431 -0.05519395 119.94851229 -0.05545626 120.80174536 -0.05572652 C134.22881425 -0.06008345 147.65587887 -0.06797112 161.08294522 -0.0771528 C174.84989086 -0.0864887 188.61683425 -0.09205548 202.38378292 -0.09408849 C210.88570075 -0.09546385 219.38760653 -0.09981514 227.88952065 -0.10791647 C233.71152538 -0.11318315 239.53352385 -0.11480447 245.35553079 -0.11350138 C248.71963532 -0.11285787 252.08370163 -0.11441528 255.4478054 -0.11920547 C259.08647225 -0.12413521 262.72508636 -0.12300096 266.36375427 -0.12025452 C267.97607403 -0.12462378 267.97607403 -0.12462378 269.6209659 -0.12908131 C270.58785752 -0.12709026 271.55474914 -0.12509921 272.55094051 -0.12304783 C273.39202105 -0.12342755 274.23310158 -0.12380727 275.0996694 -0.1241985 C277 0 277 0 278 1 C278.09638077 2.35527735 278.12371945 3.71554267 278.12304783 5.07424259 C278.12503888 5.95753272 278.12702993 6.84082285 278.12908131 7.75087935 C278.12616847 8.73237642 278.12325563 9.7138735 278.12025452 10.72511292 C278.12153615 12.27610267 278.12153615 12.27610267 278.12284368 13.85842556 C278.12450158 17.35167913 278.11897206 20.84488555 278.11352539 24.33813477 C278.11324356 26.8308614 278.11340117 29.32358811 278.1139679 31.8163147 C278.11419622 37.19764891 278.11134477 42.57896821 278.10573006 47.96029854 C278.0976173 55.74088297 278.09500007 63.52146154 278.09374207 71.30204975 C278.09155119 83.92427021 278.08489015 96.54648422 278.07543945 109.16870117 C278.06626625 121.43302376 278.05918497 133.6973446 278.05493164 145.96166992 C278.05453756 147.09484066 278.05453756 147.09484066 278.05413551 148.25090373 C278.05283051 152.04060312 278.05156679 155.83030251 278.05032361 159.62000191 C278.03994989 191.08000611 278.0220562 222.54000172 278 254 C270.74 254 263.48 254 256 254 C256 170.51 256 87.02 256 1 C171.52 1 87.04 1 0 1 C0 0.67 0 0.34 0 0 Z " fill="#8AC8FC" transform="translate(16,94)"/>
<path d="M0 0 C5.72913803 -0.07434992 11.45799301 -0.12869672 17.1875 -0.16479492 C19.13514094 -0.17984899 21.08274816 -0.2002968 23.03027344 -0.22631836 C25.83537128 -0.26285053 28.64001954 -0.27976033 31.4453125 -0.29296875 C32.74409836 -0.31619453 32.74409836 -0.31619453 34.06912231 -0.33988953 C39.13840792 -0.34128966 42.61107997 0.17286258 47 3 C48.80859375 5.22265625 48.80859375 5.22265625 50.4375 8.0625 C50.7576709 8.60994873 51.0778418 9.15739746 51.40771484 9.72143555 C52.1666846 11.02553971 52.9176219 12.3343358 53.66259766 13.64648438 C55.21155891 16.37229425 56.78292706 19.08460126 58.35546875 21.796875 C60.92167227 26.22873117 63.47947156 30.66529186 66.03125 35.10546875 C69.87558542 41.79048804 73.74307845 48.4617445 77.625 55.125 C78.47602295 56.58933472 78.47602295 56.58933472 79.34423828 58.08325195 C82.17445077 62.93728226 85.05299233 67.73495261 88.13037109 72.43701172 C89 74 89 74 89 76 C77.54349984 76.02312241 66.08700519 76.04091457 54.63048649 76.05181217 C49.31134787 76.05704122 43.99222516 76.06413927 38.6730957 76.07543945 C33.54436015 76.08626755 28.41563994 76.09227667 23.28689384 76.09487724 C21.32558386 76.09673163 19.36427476 76.10035251 17.40297127 76.10573006 C14.66584553 76.11293946 11.92878403 76.11399099 9.19165039 76.11352539 C7.96274582 76.1189183 7.96274582 76.1189183 6.70901489 76.12442017 C1.11405216 76.11405216 1.11405216 76.11405216 0 75 C-0.09492722 72.65746218 -0.12559791 70.34453896 -0.11352539 68.00170898 C-0.11367142 67.27004517 -0.11381744 66.53838135 -0.1139679 65.7845459 C-0.11326867 63.35503216 -0.10547585 60.92559417 -0.09765625 58.49609375 C-0.0957921 56.81600486 -0.09436819 55.13591543 -0.09336853 53.45582581 C-0.08954307 49.02526357 -0.07971256 44.5947339 -0.06866455 40.16418457 C-0.05845103 35.64657024 -0.05387104 31.12895066 -0.04882812 26.61132812 C-0.03809031 17.74087107 -0.02101356 8.87043824 0 0 Z " fill="#E9F5FE" transform="translate(365,148)"/>
<path d="M0 0 C2.4375 1.5625 2.4375 1.5625 4 4 C4.25 7.75 4.25 7.75 4 11 C4.58007812 11.02578125 5.16015625 11.0515625 5.7578125 11.078125 C11.24548233 11.47656967 14.71723252 12.28826818 19 16 C23.66824393 21.43532626 26.41069609 25.55277205 26.2734375 32.9921875 C25.81519375 36.35700588 24.58735828 37.87703936 22 40 C18.5 40.625 18.5 40.625 15 40 C11.93104262 37.26282179 11.07744902 35.3046328 10.0625 31.3125 C9.711875 30.219375 9.36125 29.12625 9 28 C6.525 27.01 6.525 27.01 4 26 C4 33.92 4 41.84 4 50 C6.97 50.33 9.94 50.66 13 51 C18.46429778 53.67857734 21.80589312 57.93312688 25 63 C26.4565272 67.36958161 26.26542961 71.6091203 26.3125 76.1875 C26.34150391 77.10853516 26.37050781 78.02957031 26.40039062 78.97851562 C26.46918476 86.43474172 24.9743706 91.67167359 19.96484375 97.27734375 C18.96130859 98.09912109 18.96130859 98.09912109 17.9375 98.9375 C17.26589844 99.50339844 16.59429687 100.06929688 15.90234375 100.65234375 C12.06489428 103.37086545 8.55009597 103.08585087 4 103 C3.96132812 103.92232422 3.96132812 103.92232422 3.921875 104.86328125 C3.46359584 111.39375929 3.46359584 111.39375929 1.375 114.125 C-2.11834663 115.41202244 -4.44328292 114.97001375 -8 114 C-9.9375 112.3125 -9.9375 112.3125 -11 110 C-11.1875 106.75 -11.1875 106.75 -11 104 C-12.19625 103.9175 -13.3925 103.835 -14.625 103.75 C-21.39259785 102.86830591 -25.57101219 98.92113684 -29.7421875 93.7890625 C-32.94231934 89.23732218 -33.69422522 84.45462673 -33 79 C-30.9375 76 -30.9375 76 -28 74 C-24.47866855 74 -22.15735706 74.30558577 -19.125 76.125 C-17.46127105 78.89788159 -17.45354902 81.82515688 -17 85 C-15.10466125 87.58455285 -14.11173483 87.96275506 -11 89 C-11 81.08 -11 73.16 -11 65 C-13.64 64.67 -16.28 64.34 -19 64 C-25.55530229 61.31146916 -29.35158675 56.93588526 -32.078125 50.42578125 C-33.28558729 45.93872859 -33.36812548 41.75155074 -33.375 37.125 C-33.39949219 36.26519531 -33.42398438 35.40539062 -33.44921875 34.51953125 C-33.48199532 27.31961155 -31.79319277 22.12558807 -26.96484375 16.72265625 C-26.29582031 16.17480469 -25.62679687 15.62695312 -24.9375 15.0625 C-24.26589844 14.49660156 -23.59429687 13.93070313 -22.90234375 13.34765625 C-19.06489428 10.62913455 -15.55009597 10.91414913 -11 11 C-11.0825 9.9275 -11.165 8.855 -11.25 7.75 C-11 4 -11 4 -9.4375 1.5625 C-6.05782196 -0.60396028 -3.94016013 -0.56288002 0 0 Z " fill="#020201" transform="translate(158,164)"/>
<path d="M0 0 C61.05 0 122.1 0 185 0 C185 7.59 185 15.18 185 23 C179.83730469 23.07347656 179.83730469 23.07347656 174.5703125 23.1484375 C171.24751323 23.20240246 167.92478782 23.25972758 164.60205078 23.31738281 C162.28765331 23.35573401 159.97319498 23.3905759 157.65869141 23.421875 C154.33734336 23.4673924 151.01641659 23.52540843 147.6953125 23.5859375 C146.65569366 23.59748871 145.61607483 23.60903992 144.54495239 23.62094116 C143.58410736 23.64081085 142.62326233 23.66068054 141.63330078 23.68115234 C140.78502716 23.69447601 139.93675354 23.70779968 139.06277466 23.7215271 C136.77813881 23.81776158 136.77813881 23.81776158 135 26 C134.34 27.65 133.68 29.3 133 31 C126.73 31 120.46 31 114 31 C113.01 29.02 112.02 27.04 111 25 C108.65225717 23.82612858 107.23917846 23.86284396 104.62142944 23.84178162 C103.70153732 23.8319928 102.7816452 23.82220398 101.83387756 23.81211853 C100.31581764 23.80348534 100.31581764 23.80348534 98.76708984 23.79467773 C97.7036586 23.78477814 96.64022736 23.77487854 95.54457092 23.76467896 C92.01671605 23.7329992 88.48884768 23.70828093 84.9609375 23.68359375 C82.51998538 23.66302982 80.07903686 23.6420335 77.63809204 23.62062073 C71.20356155 23.56534217 64.76899862 23.51595842 58.33441162 23.46777344 C51.77239077 23.4176006 45.21041721 23.36189255 38.6484375 23.30664062 C25.76566384 23.19898831 12.88285017 23.09807036 0 23 C0 15.41 0 7.82 0 0 Z " fill="#E4F0F9" transform="translate(169,363)"/>
<path d="M0 0 C19.99118661 -0.8808846 39.33572932 3.51639759 54.5 17.3125 C66.72283401 29.04471768 75.7746575 44.18055146 76.265625 61.41015625 C76.27086229 63.29427075 76.26553862 65.17844229 76.25 67.0625 C76.26160156 68.47499023 76.26160156 68.47499023 76.2734375 69.91601562 C76.23104888 85.14412743 70.4437191 98.23437476 61 110 C60.2575 111.03125 59.515 112.0625 58.75 113.125 C48.33133731 124.01723826 32.05867503 133.62447033 16.61328125 134.10546875 C15.75089844 134.07066406 14.88851562 134.03585937 14 134 C16.85919025 130.98048133 19.83334592 128.61237225 23.25 126.25 C39.23119753 114.7103853 48.72821941 98.42754168 52.55859375 79.1953125 C55.37962786 58.77402131 50.45879379 40.0669241 39.01953125 23.0546875 C32.02896948 13.92928351 22.05481166 3.26827587 10.25390625 1.41015625 C6.8264304 1.15818673 3.43602551 1.00990209 0 1 C0 0.67 0 0.34 0 0 Z " fill="#F8D067" transform="translate(146,154)"/>
<path d="M0 0 C9.9591588 -1.20241472 17.40289692 2.26223316 26.125 6.4375 C27.46268121 7.05719931 28.80121934 7.67505236 30.140625 8.29101562 C39.7356145 12.7356145 39.7356145 12.7356145 41 14 C41.09526806 16.95246354 41.12552452 19.88148421 41.11352539 22.83422852 C41.11367142 23.76096375 41.11381744 24.68769897 41.1139679 25.64251709 C41.11326838 28.72133687 41.10547421 31.80009697 41.09765625 34.87890625 C41.09579221 37.00740018 41.09436824 39.13589453 41.09336853 41.26438904 C41.08954228 46.8786232 41.07971108 52.49283168 41.06866455 58.10705566 C41.05845273 63.83113253 41.0538714 69.55521353 41.04882812 75.27929688 C41.0380889 86.51954438 41.02049124 97.75976604 41 109 C33.74 109 26.48 109 19 109 C18.97812622 104.67708862 18.97812622 104.67708862 18.95581055 100.2668457 C18.90548445 90.74729679 18.83889281 81.22791179 18.76428509 71.70852375 C18.71954844 65.93663744 18.68029943 60.16482226 18.65356445 54.39282227 C18.62756457 48.82302041 18.58718533 43.25349178 18.53681374 37.68385887 C18.52012264 35.55842676 18.50862236 33.43294737 18.50238609 31.30745888 C18.49276956 28.33138986 18.46473904 25.3560234 18.43237305 22.38012695 C18.43452568 21.06058517 18.43452568 21.06058517 18.4367218 19.71438599 C18.36399975 14.98946761 18.05485567 11.84558805 15 8 C13.3275309 6.73528338 13.3275309 6.73528338 11.42578125 5.98046875 C10.75869141 5.68076172 10.09160156 5.38105469 9.40429688 5.07226562 C8.71400391 4.78029297 8.02371094 4.48832031 7.3125 4.1875 C6.61060547 3.87619141 5.90871094 3.56488281 5.18554688 3.24414062 C3.4629925 2.48246692 1.73225326 1.73935041 0 1 C0 0.67 0 0.34 0 0 Z " fill="#B2D9FD" transform="translate(456,239)"/>
<path d="M0 0 C4.47099354 2.59890265 7.59377954 5.68847141 10.5 9.9375 C11.11875 10.80375 11.7375 11.67 12.375 12.5625 C14.74536239 19.67358717 14.67688066 28.27382113 11.52734375 35.16796875 C7.48104243 42.13745354 2.26378826 46.51331852 -5.5 48.9375 C-14.15644942 50.24393347 -21.34257717 49.0721729 -28.5 43.9375 C-34.18491148 38.97524676 -37.05865148 33.28560023 -37.81640625 25.8203125 C-38.05973675 19.02275729 -37.83103655 13.38585182 -33.5 7.9375 C-24.25604845 -1.737606 -12.98188152 -5.98860695 0 0 Z " fill="#010202" transform="translate(423.5,351.0625)"/>
<path d="M0 0 C4.47099354 2.59890265 7.59377954 5.68847141 10.5 9.9375 C11.11875 10.80375 11.7375 11.67 12.375 12.5625 C14.74536239 19.67358717 14.67688066 28.27382113 11.52734375 35.16796875 C7.48104243 42.13745354 2.26378826 46.51331852 -5.5 48.9375 C-14.15644942 50.24393347 -21.34257717 49.0721729 -28.5 43.9375 C-34.18491148 38.97524676 -37.05865148 33.28560023 -37.81640625 25.8203125 C-38.05973675 19.02275729 -37.83103655 13.38585182 -33.5 7.9375 C-24.25604845 -1.737606 -12.98188152 -5.98860695 0 0 Z " fill="#010202" transform="translate(123.5,351.0625)"/>
<path d="M0 0 C2.70894767 -0.08144943 5.41541263 -0.14070614 8.125 -0.1875 C8.88554687 -0.21263672 9.64609375 -0.23777344 10.4296875 -0.26367188 C15.36625777 -0.32750684 18.78766832 0.14229481 23 3 C24.80859375 5.22265625 24.80859375 5.22265625 26.4375 8.0625 C26.7576709 8.60994873 27.0778418 9.15739746 27.40771484 9.72143555 C28.1666846 11.02553971 28.9176219 12.3343358 29.66259766 13.64648438 C31.21155891 16.37229425 32.78292706 19.08460126 34.35546875 21.796875 C36.92167227 26.22873117 39.47947156 30.66529186 42.03125 35.10546875 C45.87558542 41.79048804 49.74307845 48.4617445 53.625 55.125 C54.47602295 56.58933472 54.47602295 56.58933472 55.34423828 58.08325195 C58.17445077 62.93728226 61.05299233 67.73495261 64.13037109 72.43701172 C65 74 65 74 65 76 C35.96 76 6.92 76 -23 76 C-23 75.67 -23 75.34 -23 75 C-1.22 75 20.56 75 43 75 C38.05 66.42 33.1 57.84 28 49 C23.7109375 41.546875 23.7109375 41.546875 22.00610352 38.58374023 C16.03260295 28.20588945 10.0017918 17.86558413 3.85888672 7.58691406 C3.34986816 6.73194336 2.84084961 5.87697266 2.31640625 4.99609375 C1.86724854 4.24513428 1.41809082 3.4941748 0.95532227 2.72045898 C0 1 0 1 0 0 Z " fill="#D5E8FA" transform="translate(389,148)"/>
<path d="M0 0 C12.5594439 -0.52331016 22.63683119 3.01774993 32.25 11.1875 C36.92628367 15.61418611 40.20068536 20.21659747 43 26 C43.33902344 26.68320312 43.67804688 27.36640625 44.02734375 28.0703125 C47.85525332 37.34902417 47.24851093 48.65490379 43.875 57.9375 C37.95604442 71.35048337 30.42278162 78.84656248 17.05078125 84.8359375 C11.80043015 86.83927249 7.30072642 87.11496006 1.6875 87.0625 C0.43324219 87.05347656 -0.82101562 87.04445313 -2.11328125 87.03515625 C-3.54220703 87.01775391 -3.54220703 87.01775391 -5 87 C-5 86.67 -5 86.34 -5 86 C-3.7625 85.7525 -2.525 85.505 -1.25 85.25 C2.55776636 84.32160467 4.40406342 82.99531144 7 80 C7.66 80 8.32 80 9 80 C9.26554687 79.43410156 9.53109375 78.86820312 9.8046875 78.28515625 C11.50683959 75.03104196 13.64457312 72.11906253 15.7578125 69.12109375 C17.2526762 66.97822046 17.2526762 66.97822046 17 64 C17.7425 63.4225 18.485 62.845 19.25 62.25 C23.49121229 58.77991722 25.96325377 54.42824679 27 49 C27.80167794 40.44495108 27.334155 33.94191439 22 27 C21.4946875 26.52046875 20.989375 26.0409375 20.46875 25.546875 C18.66554375 23.64775352 17.86507286 21.76893827 16.8125 19.375 C12.98177249 11.48277827 7.49837965 5.49902779 0 1 C0 0.67 0 0.34 0 0 Z " fill="#325C7D" transform="translate(409,331)"/>
<path d="M0 0 C12.5594439 -0.52331016 22.63683119 3.01774993 32.25 11.1875 C36.92628367 15.61418611 40.20068536 20.21659747 43 26 C43.33902344 26.68320312 43.67804688 27.36640625 44.02734375 28.0703125 C47.85525332 37.34902417 47.24851093 48.65490379 43.875 57.9375 C37.95604442 71.35048337 30.42278162 78.84656248 17.05078125 84.8359375 C11.80043015 86.83927249 7.30072642 87.11496006 1.6875 87.0625 C0.43324219 87.05347656 -0.82101563 87.04445313 -2.11328125 87.03515625 C-3.54220703 87.01775391 -3.54220703 87.01775391 -5 87 C-5 86.67 -5 86.34 -5 86 C-3.7625 85.7525 -2.525 85.505 -1.25 85.25 C2.55776636 84.32160467 4.40406342 82.99531144 7 80 C7.66 80 8.32 80 9 80 C9.26554687 79.43410156 9.53109375 78.86820312 9.8046875 78.28515625 C11.50683959 75.03104196 13.64457312 72.11906253 15.7578125 69.12109375 C17.2526762 66.97822046 17.2526762 66.97822046 17 64 C17.7425 63.4225 18.485 62.845 19.25 62.25 C23.49121229 58.77991722 25.96325377 54.42824679 27 49 C27.80167794 40.44495108 27.334155 33.94191439 22 27 C21.4946875 26.52046875 20.989375 26.0409375 20.46875 25.546875 C18.66554375 23.64775352 17.86507286 21.76893827 16.8125 19.375 C12.98177249 11.48277827 7.49837965 5.49902779 0 1 C0 0.67 0 0.34 0 0 Z " fill="#325C7D" transform="translate(109,331)"/>
<path d="M0 0 C12.87 0 25.74 0 39 0 C39 7.59 39 15.18 39 23 C26.46 23 13.92 23 1 23 C-0.2263757 20.54724859 -0.11415314 18.9494219 -0.09765625 16.2109375 C-0.09515869 15.36321777 -0.09266113 14.51549805 -0.09008789 13.64208984 C-0.08098389 12.5639502 -0.07187988 11.48581055 -0.0625 10.375 C-0.041875 6.95125 -0.02125 3.5275 0 0 Z " fill="#E3EFF7" transform="translate(15,363)"/>
<path d="M0 0 C9.24 0 18.48 0 28 0 C28.020625 3.42375 28.04125 6.8475 28.0625 10.375 C28.071604 11.45313965 28.08070801 12.5312793 28.09008789 13.64208984 C28.09258545 14.48980957 28.09508301 15.3375293 28.09765625 16.2109375 C28.10551147 17.51490479 28.10551147 17.51490479 28.11352539 18.84521484 C28 21 28 21 27 23 C18.09 23 9.18 23 0 23 C0 15.41 0 7.82 0 0 Z " fill="#D0E4F5" transform="translate(469,363)"/>
<path d="M0 0 C2.87029869 1.79393668 4.49131638 2.98263276 6 6 C6.34708476 11.29304255 6.51351894 14.73358414 3 19 C0.01158633 21.32432174 -3.29702619 21.47116644 -7.03125 21.39453125 C-10.38693026 20.72206358 -11.95936396 18.59717314 -14 16 C-15.60086627 12.79826746 -15.49917089 9.47422941 -15 6 C-11.03690229 -0.20885308 -7.02452124 -0.90991208 0 0 Z " fill="#E5F1F9" transform="translate(416,364)"/>
<path d="M0 0 C2.87029869 1.79393668 4.49131638 2.98263276 6 6 C6.34708476 11.29304255 6.51351894 14.73358414 3 19 C0.01158633 21.32432174 -3.29702619 21.47116644 -7.03125 21.39453125 C-10.38693026 20.72206358 -11.95936396 18.59717314 -14 16 C-15.60086627 12.79826746 -15.49917089 9.47422941 -15 6 C-11.03690229 -0.20885308 -7.02452124 -0.90991208 0 0 Z " fill="#E5F1F9" transform="translate(116,364)"/>
<path d="M0 0 C2.475 0.495 2.475 0.495 5 1 C7.49508858 4.74263288 7.33112659 6.90868692 7.375 11.375 C7.40335938 12.68210938 7.43171875 13.98921875 7.4609375 15.3359375 C6.93787692 19.49382583 6.03765311 21.15973951 3 24 C2.01 24 1.02 24 0 24 C0 16.08 0 8.16 0 0 Z " fill="#F7DA75" transform="translate(162,229)"/>
<path d="M0 0 C0 7.92 0 15.84 0 24 C-4 23 -4 23 -5.7265625 21.40625 C-7.51203403 18.03247558 -7.39742472 15.29725255 -7.375 11.5 C-7.38273438 10.1903125 -7.39046875 8.880625 -7.3984375 7.53125 C-6.7646709 1.91433818 -5.80678497 0 0 0 Z " fill="#F7DA75" transform="translate(147,190)"/>
<path d="M0 0 C1.65 0 3.3 0 5 0 C5 6.6 5 13.2 5 20 C3.35 20.33 1.7 20.66 0 21 C0 14.07 0 7.14 0 0 Z " fill="#E8F5FE" transform="translate(470,364)"/>
</svg>
