<?xml version="1.0" standalone="no"?>
<!DOCTYPE svg PUBLIC "-//W3C//DTD SVG 20010904//EN"
 "http://www.w3.org/TR/2001/REC-SVG-20010904/DTD/svg10.dtd">
<svg version="1.0" xmlns="http://www.w3.org/2000/svg"
 width="512.000000pt" height="512.000000pt" viewBox="0 0 512.000000 512.000000"
 preserveAspectRatio="xMidYMid meet">

<g transform="translate(0.000000,512.000000) scale(0.100000,-0.100000)"
fill="#000000" stroke="none">
<path d="M105 4311 c-48 -22 -69 -44 -90 -94 -12 -30 -15 -92 -15 -366 0 -306
1 -330 19 -352 23 -28 83 -32 109 -6 15 16 18 52 22 350 l5 332 1390 0 1390 0
3 -1267 2 -1268 -652 0 -653 0 -30 51 c-41 70 -150 169 -227 207 -167 82 -354
82 -525 0 -77 -37 -219 -170 -242 -226 l-13 -32 -224 0 -224 0 0 789 c0 782 0
789 -21 815 -15 19 -30 26 -54 26 -24 0 -39 -7 -54 -26 -21 -27 -21 -30 -21
-1008 0 -935 1 -983 19 -1022 41 -89 93 -104 366 -104 l210 0 20 -38 c11 -20
52 -69 91 -108 228 -230 591 -229 819 0 38 39 79 88 90 108 l19 38 572 2 c546
3 573 4 593 22 27 25 29 86 3 109 -17 15 -70 17 -563 17 l-544 0 0 115 0 115
920 0 920 0 0 -115 0 -115 -236 0 c-216 0 -237 -2 -252 -18 -24 -27 -22 -85 4
-108 19 -17 42 -19 283 -22 l262 -3 19 -37 c11 -20 52 -69 91 -108 228 -230
591 -229 819 0 38 39 79 88 89 108 l20 36 175 4 c202 3 234 13 279 81 l27 41
3 665 c2 366 0 686 -3 709 -10 71 -63 112 -240 191 l-149 67 -231 399 c-158
272 -246 415 -277 447 -76 78 -76 78 -640 78 l-488 0 0 198 c0 248 -13 285
-113 327 -32 13 -199 15 -1434 15 -1335 0 -1400 -1 -1438 -19z m3395 -1055 c0
-248 4 -395 11 -413 15 -40 48 -73 94 -94 37 -17 76 -19 550 -19 l510 -1 150
-68 150 -68 3 -476 2 -477 -167 0 -168 0 -30 51 c-41 70 -150 169 -227 207
-167 82 -354 82 -525 0 -77 -37 -219 -170 -242 -225 l-13 -33 -254 0 -254 0 0
1000 0 1000 205 0 205 0 0 -384z m595 365 c22 -13 84 -110 235 -371 113 -195
207 -357 208 -362 2 -4 -196 -7 -440 -6 l-443 3 -3 378 -2 377 207 0 c185 0
211 -2 238 -19z m-2822 -1840 c109 -42 205 -140 248 -251 97 -255 -65 -531
-341 -582 -125 -24 -279 28 -373 125 -229 234 -133 615 181 718 77 26 204 21
285 -10z m3000 0 c109 -42 205 -140 248 -251 97 -255 -65 -531 -341 -582 -125
-24 -279 28 -373 125 -229 234 -133 615 181 718 77 26 204 21 285 -10z m-3738
-406 l0 -115 -181 0 c-127 0 -184 4 -192 12 -8 8 -12 48 -12 115 l0 103 193 0
192 0 0 -115z m4435 12 c0 -67 -4 -107 -12 -115 -8 -8 -53 -12 -137 -12 l-126
0 0 115 0 115 138 0 137 0 0 -103z"/>
<path d="M1005 1609 c-131 -65 -184 -222 -117 -350 97 -186 357 -186 454 0 68
131 7 299 -129 356 -52 22 -159 19 -208 -6z m186 -158 c47 -48 36 -137 -22
-167 -78 -40 -158 8 -159 94 0 63 40 102 105 102 38 0 52 -5 76 -29z"/>
<path d="M4005 1609 c-131 -65 -184 -222 -117 -350 97 -186 357 -186 454 0 68
131 7 299 -129 356 -52 22 -159 19 -208 -6z m186 -158 c47 -48 36 -137 -22
-167 -78 -40 -158 8 -159 94 0 63 40 102 105 102 38 0 52 -5 76 -29z"/>
<path d="M1417 3720 c-74 -13 -186 -49 -242 -77 -179 -91 -334 -260 -404 -441
-39 -102 -51 -174 -51 -302 0 -575 594 -966 1138 -749 243 96 427 307 492 563
23 90 27 254 9 352 -26 142 -103 288 -213 402 -157 165 -345 249 -571 257 -60
2 -132 0 -158 -5z m261 -155 c46 -9 115 -34 172 -62 173 -85 307 -250 355
-438 19 -76 19 -232 0 -314 -42 -175 -173 -344 -335 -430 -112 -60 -182 -76
-325 -76 -143 0 -213 16 -327 77 -159 84 -292 256 -333 429 -19 82 -19 238 0
314 48 189 181 354 355 438 150 73 284 92 438 62z"/>
<path d="M1492 3457 c-13 -14 -22 -36 -22 -55 0 -29 -3 -32 -30 -32 -69 0
-155 -72 -179 -149 -14 -47 -15 -184 -1 -230 22 -77 94 -143 171 -156 l39 -7
0 -119 c0 -76 -4 -119 -10 -119 -21 0 -60 49 -60 75 0 33 -42 75 -75 75 -35 0
-75 -42 -75 -78 0 -106 107 -221 208 -222 7 0 12 -12 12 -29 0 -45 30 -75 75
-75 44 0 75 30 75 73 0 25 5 29 58 44 46 13 68 26 100 61 22 24 45 61 51 82
14 52 14 187 -1 235 -23 78 -107 149 -177 149 l-31 0 0 120 c0 112 1 120 19
120 25 0 51 -36 51 -70 0 -64 90 -94 129 -44 66 84 -49 264 -169 264 -27 0
-30 3 -30 33 0 68 -83 103 -128 54z m-22 -357 c0 -77 -4 -120 -10 -120 -6 0
-22 11 -35 25 -22 21 -25 33 -25 97 0 80 16 118 51 118 18 0 19 -8 19 -120z
m204 -292 c11 -15 16 -46 16 -96 0 -64 -3 -76 -25 -97 -13 -14 -29 -25 -35
-25 -6 0 -10 43 -10 120 0 112 1 120 19 120 11 0 27 -10 35 -22z"/>
</g>
</svg>
