<svg clip-rule="evenodd" fill-rule="evenodd" height="512" image-rendering="optimizeQuality" shape-rendering="geometricPrecision" text-rendering="geometricPrecision" viewBox="0 0 173.397 173.228" width="512" xmlns="http://www.w3.org/2000/svg"><g id="Layer_x0020_1"><circle cx="86.699" cy="86.614" fill="#0f9d58" r="84.667"/><g id="_409642856" fill="#fff"><path id="_409643648" d="m74.941 134.316h23.515v6.727h-23.515z"/><path id="_409643312" d="m57.174 106.211h59.05v5.681h-59.05z"/><path id="_409643240" d="m57.174 49.703h59.05v5.681h-59.05z"/><path id="_409643336" d="m112.499 47.2844c-5.7122-9.3799-15.3753-15.099-25.8001-15.099s-20.0879 5.7191-25.8001 15.099z"/><path id="_409643000" d="m111.999 103.792v-45.9891h-50.601v45.9891zm-37.9744-16.0995 12.6739 5.1998 12.6739-5.1998zm28.5239 1.303-15.85 6.5029-15.85-6.5029v11.7027h31.7zm-28.6679-21.8405h2.5407l.902-5.6787h18.7504l.902 5.6787h2.5407v3.0671h-2.5407l-.902 5.6789h-18.7504l-.902-5.6789h-2.5407c0-1.0223 0-2.0447 0-3.0671z"/><g><path id="_409642568" d="m93.983 63.8954h-14.5688l-.477 3.2597h15.5228z"/><path id="_409642304" d="m93.983 73.4821.477-3.2599h-15.5228l.477 3.2599z"/></g><path id="_409642376" d="m92.5028 131.896v-17.585h-11.6084v17.585z"/></g></g></svg>