<svg id="Layer_1" viewBox="0 0 1000 1000" xmlns="http://www.w3.org/2000/svg" data-name="Layer 1"><circle cx="500" cy="500" fill="#59321f" r="500"/><g fill="#fcfcfc"><path d="m825 453.06v4.49a18.06 18.06 0 0 1 -18 18h-614a18.06 18.06 0 0 1 -18-18v-4.49a18.05 18.05 0 0 1 18-18h614a18.05 18.05 0 0 1 18 18z"/><path d=""/><path d=""/><path d="m215.76 490.89h30.28v287.22h-30.28z"/><path d="m261.34 685.08h319.89v15.29h-319.89z"/><path d="m683.94 252.71v116.29a43.32 43.32 0 0 0 -15.29 0v-111.1l-119.29-47.25v23.64c-1.41-.13-2.84-.2-4.29-.2h-6.71c-1.45 0-2.88.07-4.29.2v-34.9a7.64 7.64 0 0 1 10.46-7.11l134.59 53.32a7.65 7.65 0 0 1 4.82 7.11z"/><path d="m575.78 280.1v20.9h-68.13v-20.9a30.75 30.75 0 0 1 30.71-30.71h6.71a30.75 30.75 0 0 1 30.71 30.71z"/><path d="m704.52 411.82v7.91h-56.44v-7.91a28.22 28.22 0 0 1 56.44 0z"/><path d="m596.52 490.89v86.27h186.58v-86.27zm100.28 48.24h-14a7.65 7.65 0 1 1 0-15.29h14a7.65 7.65 0 0 1 0 15.29z"/><path d="m596.52 592.46v92.62h186.58v-92.62zm100.28 54.76h-14a7.65 7.65 0 1 1 0-15.29h14a7.65 7.65 0 0 1 0 15.29z"/><path d="m596.52 700.38v87.88h186.58v-87.88zm100.28 53.15h-14a7.65 7.65 0 1 1 0-15.29h14a7.65 7.65 0 0 1 0 15.29z"/></g></svg>