<?xml version="1.0" encoding="UTF-8"?>
<svg version="1.1" xmlns="http://www.w3.org/2000/svg" width="512" height="512">
<path d="M0 0 C0.77169525 0.39990143 1.5433905 0.79980286 2.33847046 1.21182251 C6.86955894 3.56065514 11.39488682 5.92026111 15.91607666 8.28808594 C17.65885682 9.19946846 19.40420164 10.10594293 21.14990234 11.01171875 C23.67185811 12.32438507 26.18221465 13.65586757 28.6875 15 C29.35990723 15.34828857 30.03231445 15.69657715 30.72509766 16.05541992 C37.1453896 19.57788617 42.20080808 24.99126294 44.38671875 32.05859375 C47.33166726 45.6524761 41.33523912 59.11101148 34.3515625 70.6796875 C32.48053878 73.55298109 30.55944136 75.94624951 27.9375 78.1875 C27.30972656 78.74179688 26.68195313 79.29609375 26.03515625 79.8671875 C19.62218545 84.15796362 12.30232566 84.13954275 4.875 83.3125 C0.05165549 82.08537206 -4.5412377 80.23671806 -9.125 78.3125 C-8.94582031 79.12074219 -8.76664063 79.92898437 -8.58203125 80.76171875 C-8.36933594 81.83035156 -8.15664063 82.89898437 -7.9375 84 C-7.71707031 85.05574219 -7.49664062 86.11148438 -7.26953125 87.19921875 C-7.09462761 90.96673768 -7.77587851 92.4028506 -10.125 95.3125 C-12.105 96.3025 -12.105 96.3025 -14.125 97.3125 C-12.145 109.6875 -12.145 109.6875 -10.125 122.3125 C-0.73058158 119.36277508 -0.73058158 119.36277508 7.75 115.3125 C8.65234375 114.80203125 9.5546875 114.2915625 10.484375 113.765625 C13.04502858 112.25158874 13.04502858 112.25158874 16 110.0625 C21.71673537 106.58274803 27.96064411 105.71309185 34.546875 106.71484375 C41.13288957 108.40554883 47.3006069 111.52060327 51.5 116.97265625 C61.09774483 133.30518226 63.77768451 153.15955191 59.375 171.5625 C56.06902591 183.94061026 49.38736186 194.82927813 40.875 204.3125 C40.33488281 204.94542969 39.79476563 205.57835937 39.23828125 206.23046875 C34.17401674 211.78521892 26.99499977 217.57876775 19.39453125 218.66796875 C17.25 218.5 17.25 218.5 13.875 217.3125 C12.6640625 215.23828125 12.6640625 215.23828125 11.875 213.3125 C8.75876905 213.69869956 5.82674326 214.22230911 2.875 215.3125 C0.69553354 218.16501385 0.69553354 218.16501385 -1.125 221.3125 C-6.34980445 225.1030444 -10.73448772 226.02268085 -17.125 226.3125 C-17.16625 227.55 -17.2075 228.7875 -17.25 230.0625 C-17.7079346 233.64329415 -18.00362482 234.19401471 -20.75 236.875 C-24.85615818 238.62391923 -26.86695613 238.57414263 -31.125 237.3125 C-33.5625 235.5 -33.5625 235.5 -35.125 233.3125 C-35.125 231.9925 -35.125 230.6725 -35.125 229.3125 C-36.18460937 229.58513672 -36.18460937 229.58513672 -37.265625 229.86328125 C-47.45865954 232.36031861 -57.74090051 233.85272131 -68.125 235.3125 C-68.00125 236.034375 -67.8775 236.75625 -67.75 237.5 C-68.21256517 240.96923875 -69.55719184 242.05279723 -72.24539185 244.17098999 C-75.6466386 246.23661053 -79.26588301 246.72775112 -83.15234375 247.33203125 C-84.0183168 247.48032883 -84.88428986 247.6286264 -85.77650452 247.78141785 C-87.60637956 248.09035432 -89.43787119 248.38984716 -91.27075195 248.68041992 C-94.02685012 249.11932283 -96.77568965 249.59119159 -99.52539062 250.06835938 C-127.89173151 254.84717245 -127.89173151 254.84717245 -138.0390625 248.86328125 C-147.5187095 241.81567852 -149.54696201 232.41877441 -151.37744141 221.2902832 C-151.58109818 220.09599701 -151.78475494 218.90171082 -151.99458313 217.67123413 C-152.54828709 214.41421582 -153.0942142 211.15607353 -153.63676119 207.89719033 C-154.20766226 204.48001437 -154.78884384 201.06458813 -155.36898804 197.64897156 C-156.46542536 191.18462666 -157.55317631 184.7188533 -158.63754976 178.25247496 C-160.23009361 168.75810325 -161.83553903 159.26591162 -163.44121361 149.77375317 C-163.67829096 148.37213384 -163.91536489 146.97051393 -164.1524353 145.56889343 C-164.3260789 144.54242267 -164.3260789 144.54242267 -164.50323045 143.49521512 C-165.1903612 139.43153816 -165.87491492 135.36743753 -166.55716348 131.3029381 C-166.87920453 129.38508987 -167.20200602 127.46736937 -167.52482605 125.5496521 C-167.91821084 123.2126996 -168.31041341 120.87554766 -168.70121765 118.53816223 C-168.87495407 117.50783875 -169.04869049 116.47751526 -169.22769165 115.41596985 C-169.37773462 114.52170445 -169.5277776 113.62743906 -169.68236732 112.70607471 C-170.08188433 110.54565173 -170.56422351 108.43605296 -171.125 106.3125 C-171.80304688 106.91578125 -172.48109375 107.5190625 -173.1796875 108.140625 C-180.89550686 114.76639786 -188.33157702 120.24842348 -198.9140625 119.6171875 C-208.29278305 118.32471364 -213.55618448 113.96929073 -220.125 107.3125 C-220.60324219 106.83538574 -221.08148438 106.35827148 -221.57421875 105.86669922 C-229.27709433 98.12591579 -235.3512216 90.87957377 -236.16015625 79.57421875 C-236.00245798 69.4289636 -231.03411729 63.00328201 -224.3125 55.875 C-223.77987549 55.30370361 -223.24725098 54.73240723 -222.69848633 54.14379883 C-219.43311672 50.65586942 -216.09870742 47.25185728 -212.6875 43.90625 C-210.98122166 42.16584609 -209.39858373 40.35043102 -207.8125 38.5 C-204.25948605 34.37211638 -200.41670335 30.58277237 -196.53515625 26.765625 C-194.41434981 24.60700839 -192.4829776 22.397373 -190.5625 20.0625 C-181.11270926 9.38574327 -168.50659443 7.03807805 -154.6472168 6.15454102 C-147.01034213 5.99535696 -141.18341694 8.15361745 -134.9375 12.5625 C-132.68238412 14.7675022 -130.66447537 16.98006051 -128.625 19.375 C-122.62783079 26.29581132 -116.17741684 29.16176905 -107.125 30.3125 C-97.54350162 29.94580068 -89.73728578 27.28919252 -83 20.4375 C-78.92551186 15.63087727 -76.87311465 10.35627943 -74.5390625 4.55859375 C-71.47579566 -2.47338069 -67.17949144 -6.43871087 -60.2265625 -9.62109375 C-36.89816256 -17.64206753 -20.86000967 -10.83969884 0 0 Z " fill="#CAE2F9" transform="translate(344.125,139.6875)"/>
<path d="M0 0 C0.77169525 0.39990143 1.5433905 0.79980286 2.33847046 1.21182251 C6.86955894 3.56065514 11.39488682 5.92026111 15.91607666 8.28808594 C17.65885682 9.19946846 19.40420164 10.10594293 21.14990234 11.01171875 C23.67185811 12.32438507 26.18221465 13.65586757 28.6875 15 C29.35990723 15.34828857 30.03231445 15.69657715 30.72509766 16.05541992 C37.1453896 19.57788617 42.20080808 24.99126294 44.38671875 32.05859375 C47.33166726 45.6524761 41.33523912 59.11101148 34.3515625 70.6796875 C32.48053878 73.55298109 30.55944136 75.94624951 27.9375 78.1875 C27.30972656 78.74179688 26.68195313 79.29609375 26.03515625 79.8671875 C19.62218545 84.15796362 12.30232566 84.13954275 4.875 83.3125 C0.05165549 82.08537206 -4.5412377 80.23671806 -9.125 78.3125 C-8.94582031 79.12074219 -8.76664063 79.92898437 -8.58203125 80.76171875 C-8.36933594 81.83035156 -8.15664063 82.89898437 -7.9375 84 C-7.71707031 85.05574219 -7.49664062 86.11148438 -7.26953125 87.19921875 C-7.09621955 90.9324465 -7.91017077 92.36455713 -10.125 95.3125 C-12.63945918 97.82695918 -14.51484276 97.70242981 -17.95703125 97.96875 C-21.58075049 96.87184039 -23.3934233 94.52345622 -25.125 91.3125 C-26.27738018 87.38222332 -26.86999404 83.42615729 -27.4375 79.375 C-27.60572266 78.31603516 -27.77394531 77.25707031 -27.94726562 76.16601562 C-30.15308226 61.73367253 -30.15308226 61.73367253 -27 57.375 C-23.54705598 54.89788798 -22.28850921 54.96519792 -18.125 55.3125 C-15.07641602 56.24633789 -15.07641602 56.24633789 -11.87890625 57.53515625 C-10.71166016 57.99083984 -9.54441406 58.44652344 -8.34179688 58.91601562 C-5.90761843 59.8878656 -3.47531449 60.86442396 -1.04492188 61.84570312 C0.12361328 62.30009766 1.29214844 62.75449219 2.49609375 63.22265625 C4.08055298 63.85892944 4.08055298 63.85892944 5.69702148 64.50805664 C9.45609038 65.45959171 12.11291789 65.15827275 15.875 64.3125 C18.31187936 62.14308301 19.47808527 59.23828557 20.875 56.3125 C21.34292969 55.34957031 21.81085938 54.38664062 22.29296875 53.39453125 C24.94827771 47.52607531 26.91138608 42.76112448 25.875 36.3125 C23.1475018 33.03604913 20.27170371 31.27824353 16.46484375 29.4296875 C15.40120605 28.90689209 14.33756836 28.38409668 13.24169922 27.84545898 C12.11006348 27.29833252 10.97842773 26.75120605 9.8125 26.1875 C7.45882883 25.03158884 5.10597011 23.87402198 2.75390625 22.71484375 C1.59004395 22.14233887 0.42618164 21.56983398 -0.77294922 20.97998047 C-6.22677468 18.26697042 -11.60839547 15.42291385 -16.98461914 12.56005859 C-18.36203977 11.82710752 -19.7407993 11.09666526 -21.12109375 10.36914062 C-22.50254555 9.64071429 -23.87993867 8.90455608 -25.25390625 8.16210938 C-30.87496439 5.20503503 -34.79694346 4.7223656 -41.125 5.3125 C-42.15753906 5.40660156 -43.19007813 5.50070313 -44.25390625 5.59765625 C-48.75094652 6.16599385 -52.21446004 6.73130428 -56.0625 9.1875 C-58.6022673 13.03563227 -60.1326385 17.03226797 -61.81640625 21.3125 C-63.6669743 25.55499632 -66.09534502 28.84573062 -69.125 32.3125 C-69.84042969 33.20195312 -69.84042969 33.20195312 -70.5703125 34.109375 C-77.32212421 41.77726167 -89.40809017 47.72005778 -99.53515625 48.61328125 C-115.58323823 48.66477242 -128.91264102 45.75219919 -140.5625 34.1875 C-142.79351715 31.82784101 -144.99835367 29.45446057 -147.16015625 27.03125 C-150.02021727 24.52940736 -151.83828956 24.87369618 -155.48828125 25.0546875 C-167.66077206 26.2448866 -174.33425287 28.9429187 -182.5625 38.0625 C-183.79781705 39.40918451 -185.03350687 40.75552716 -186.26953125 42.1015625 C-186.9032666 42.79540039 -187.53700195 43.48923828 -188.18994141 44.20410156 C-190.72330226 46.96439734 -193.28694392 49.69528465 -195.85571289 52.42260742 C-197.11554184 53.76264716 -198.37127033 55.10655413 -199.62280273 56.4543457 C-202.61158888 59.67064645 -205.62839776 62.8302862 -208.7734375 65.89453125 C-214.39460192 71.17681703 -214.39460192 71.17681703 -217.88671875 77.87109375 C-217.74639125 82.25078884 -216.00407671 84.80186405 -213 87.875 C-212.37609375 88.42542969 -211.7521875 88.97585937 -211.109375 89.54296875 C-208.96214911 91.45771939 -207.12463567 93.50688041 -205.25 95.6875 C-202.22256619 99.59628577 -202.22256619 99.59628577 -197.55859375 100.75390625 C-192.07379223 100.67693087 -189.12043371 97.77381268 -185.1875 94.25 C-184.48947266 93.65743408 -183.79144531 93.06486816 -183.07226562 92.4543457 C-180.14198887 89.96667703 -177.25747473 87.4290026 -174.37109375 84.890625 C-170.98596526 82.04122989 -168.38173446 79.90059862 -163.875 79.5 C-160.00436171 80.3386383 -158.65350021 81.1547547 -156.26046753 84.23770142 C-153.81577563 88.70479815 -153.39945611 93.81697457 -152.66015625 98.79296875 C-152.46153992 100.02140503 -152.26292358 101.24984131 -152.05828857 102.51550293 C-151.63579732 105.14458554 -151.22039608 107.77360101 -150.81729126 110.40560913 C-150.18533235 114.53175023 -149.52696206 118.65339817 -148.86401367 122.7746582 C-148.09870916 127.54220381 -147.33898549 132.31055399 -146.58825397 137.08041668 C-145.12080524 146.40191976 -143.55751068 155.70401132 -141.9375 165 C-141.47944509 167.64695898 -141.02295376 170.29418692 -140.56640625 172.94140625 C-140.45375931 173.5932338 -140.34111237 174.24506134 -140.22505188 174.91664124 C-139.23017321 180.68063188 -138.25319946 186.44760624 -137.27734375 192.21484375 C-136.79930388 195.03473914 -136.3211012 197.85460689 -135.84286499 200.67446899 C-135.53545612 202.48990774 -135.22881235 204.30547624 -134.92300415 206.1211853 C-134.49762442 208.64625141 -134.0693933 211.17081989 -133.640625 213.6953125 C-133.51691025 214.43438339 -133.3931955 215.17345428 -133.26573181 215.93492126 C-132.62161182 219.71118103 -131.91677325 223.47170283 -131.13574219 227.22216797 C-130.90718536 228.32260941 -130.90718536 228.32260941 -130.67401123 229.44528198 C-130.20512004 231.48755553 -130.20512004 231.48755553 -128.4375 233.375 C-123.33361133 235.44414406 -117.84487769 234.20892174 -112.625 233.0625 C-105.80959396 231.63808014 -98.98067239 230.3416098 -92.125 229.125 C-91.14595703 228.94614258 -90.16691406 228.76728516 -89.15820312 228.58300781 C-75.78643849 226.22895316 -75.78643849 226.22895316 -71.25 229.1875 C-68.55093031 231.88656969 -68.19222509 232.80351005 -67.6875 236.625 C-68.125 240.3125 -68.125 240.3125 -70.58813477 242.91674805 C-74.45574939 245.91164752 -78.40278602 246.59355387 -83.15234375 247.33203125 C-84.0183168 247.48032883 -84.88428986 247.6286264 -85.77650452 247.78141785 C-87.60637956 248.09035432 -89.43787119 248.38984716 -91.27075195 248.68041992 C-94.02685012 249.11932283 -96.77568965 249.59119159 -99.52539062 250.06835938 C-127.89173151 254.84717245 -127.89173151 254.84717245 -138.0390625 248.86328125 C-147.5187095 241.81567852 -149.54696201 232.41877441 -151.37744141 221.2902832 C-151.58109818 220.09599701 -151.78475494 218.90171082 -151.99458313 217.67123413 C-152.54828709 214.41421582 -153.0942142 211.15607353 -153.63676119 207.89719033 C-154.20766226 204.48001437 -154.78884384 201.06458813 -155.36898804 197.64897156 C-156.46542536 191.18462666 -157.55317631 184.7188533 -158.63754976 178.25247496 C-160.23009361 168.75810325 -161.83553903 159.26591162 -163.44121361 149.77375317 C-163.67829096 148.37213384 -163.91536489 146.97051393 -164.1524353 145.56889343 C-164.3260789 144.54242267 -164.3260789 144.54242267 -164.50323045 143.49521512 C-165.1903612 139.43153816 -165.87491492 135.36743753 -166.55716348 131.3029381 C-166.87920453 129.38508987 -167.20200602 127.46736937 -167.52482605 125.5496521 C-167.91821084 123.2126996 -168.31041341 120.87554766 -168.70121765 118.53816223 C-168.87495407 117.50783875 -169.04869049 116.47751526 -169.22769165 115.41596985 C-169.37773462 114.52170445 -169.5277776 113.62743906 -169.68236732 112.70607471 C-170.08188433 110.54565173 -170.56422351 108.43605296 -171.125 106.3125 C-171.80304688 106.91578125 -172.48109375 107.5190625 -173.1796875 108.140625 C-180.89550686 114.76639786 -188.33157702 120.24842348 -198.9140625 119.6171875 C-208.29278305 118.32471364 -213.55618448 113.96929073 -220.125 107.3125 C-220.60324219 106.83538574 -221.08148438 106.35827148 -221.57421875 105.86669922 C-229.27709433 98.12591579 -235.3512216 90.87957377 -236.16015625 79.57421875 C-236.00245798 69.4289636 -231.03411729 63.00328201 -224.3125 55.875 C-223.77987549 55.30370361 -223.24725098 54.73240723 -222.69848633 54.14379883 C-219.43311672 50.65586942 -216.09870742 47.25185728 -212.6875 43.90625 C-210.98122166 42.16584609 -209.39858373 40.35043102 -207.8125 38.5 C-204.25948605 34.37211638 -200.41670335 30.58277237 -196.53515625 26.765625 C-194.41434981 24.60700839 -192.4829776 22.397373 -190.5625 20.0625 C-181.11270926 9.38574327 -168.50659443 7.03807805 -154.6472168 6.15454102 C-147.01034213 5.99535696 -141.18341694 8.15361745 -134.9375 12.5625 C-132.68238412 14.7675022 -130.66447537 16.98006051 -128.625 19.375 C-122.62783079 26.29581132 -116.17741684 29.16176905 -107.125 30.3125 C-97.54350162 29.94580068 -89.73728578 27.28919252 -83 20.4375 C-78.92551186 15.63087727 -76.87311465 10.35627943 -74.5390625 4.55859375 C-71.47579566 -2.47338069 -67.17949144 -6.43871087 -60.2265625 -9.62109375 C-36.89816256 -17.64206753 -20.86000967 -10.83969884 0 0 Z " fill="#010101" transform="translate(344.125,139.6875)"/>
<path d="M0 0 C3.16796875 1.80078125 3.16796875 1.80078125 6.1875 4.3125 C6.72922852 4.75456787 7.27095703 5.19663574 7.82910156 5.65209961 C9.57001874 7.0819242 11.28519168 8.53900807 13 10 C14.22963832 11.02703673 15.46011158 12.05307462 16.69140625 13.078125 C26.95865609 21.66585986 26.95865609 21.66585986 27.23828125 23.92578125 C27.43654506 30.30152791 27.43654506 30.30152791 25.4375 33.5 C22.13831882 35.53026534 19.87929749 36 16 36 C12.8125 34.25 12.8125 34.25 10 32 C8.824375 31.13375 8.824375 31.13375 7.625 30.25 C7.08875 29.8375 6.5525 29.425 6 29 C4.80872407 31.38255186 4.68411211 33.23678542 4.421875 35.890625 C-0.90733867 86.60123387 -19.98804163 132.78252551 -54 171 C-54.44698242 171.50869629 -54.89396484 172.01739258 -55.35449219 172.54150391 C-90.9546616 212.97294181 -140.93807856 238.88788245 -194 247 C-194.74008301 247.11714355 -195.48016602 247.23428711 -196.24267578 247.35498047 C-255.4906472 256.33760826 -319.04354755 240.20264535 -367.1875 204.8125 C-373.79353005 199.8650395 -380.00066286 194.66920284 -386 189 C-387.36997848 187.80671034 -388.74483093 186.6189883 -390.125 185.4375 C-397.9320777 178.60043997 -404.52966839 171.10217891 -411 163 C-411.65871094 162.20851563 -412.31742188 161.41703125 -412.99609375 160.6015625 C-427.32709988 143.24287901 -438.29176046 123.36280222 -446.75 102.5625 C-447.18054688 101.51465332 -447.61109375 100.46680664 -448.0546875 99.38720703 C-450.14591271 94.05440962 -451.68914971 89.74038991 -451 84 C-449.5625 81.0625 -449.5625 81.0625 -447 79 C-443.04691071 78.23839564 -439.50911447 78.08605522 -436.00048828 80.2109375 C-433.59428744 82.36283398 -432.88214301 84.07379648 -431.7734375 87.09375 C-431.38655762 88.11509033 -430.99967773 89.13643066 -430.60107422 90.1887207 C-430.19646973 91.28144287 -429.79186523 92.37416504 -429.375 93.5 C-411.29941546 140.41622886 -377.60541105 178.23728638 -334 203 C-333.4131543 203.3412793 -332.82630859 203.68255859 -332.22167969 204.03417969 C-285.31525764 231.22065281 -226.70619958 236.56080263 -174.65234375 223.57421875 C-158.39619042 219.22107054 -142.74553828 213.08937835 -128 205 C-126.6551057 204.2835579 -125.31004974 203.56741919 -123.96484375 202.8515625 C-109.69279963 195.14881128 -97.14696769 185.69934174 -85 175 C-84.49807129 174.56123535 -83.99614258 174.1224707 -83.47900391 173.67041016 C-77.51979157 168.44511981 -72.0306509 163.11782496 -67 157 C-66.03556448 155.87074497 -65.07067737 154.74187555 -64.10546875 153.61328125 C-55.70948621 143.67391023 -48.59542134 133.2075526 -42 122 C-41.42209717 121.02015137 -41.42209717 121.02015137 -40.83251953 120.02050781 C-26.66368159 95.63394292 -14.54076657 63.06480687 -14.9375 34.5 C-14.95103516 33.21609375 -14.95103516 33.21609375 -14.96484375 31.90625 C-14.97644531 31.2771875 -14.98804688 30.648125 -15 30 C-15.56847656 30.44472656 -16.13695312 30.88945312 -16.72265625 31.34765625 C-23.02709042 35.96810133 -23.02709042 35.96810133 -27.8125 36.125 C-31.38339382 34.86468453 -32.95120077 34.1961268 -35 31 C-35.73395635 25.94385628 -35.93509651 24.29181852 -32.890625 20.0859375 C-29.97920337 16.79602588 -26.68016839 14.14577441 -23.1875 11.5 C-22.5672998 11.0258667 -21.94709961 10.5517334 -21.30810547 10.06323242 C-20.08593825 9.12926393 -18.86235672 8.19714258 -17.63720703 7.26708984 C-16.25892339 6.20038956 -14.91932787 5.08396836 -13.58984375 3.95703125 C-12.94144531 3.41433594 -12.29304688 2.87164062 -11.625 2.3125 C-11.10164063 1.85488281 -10.57828125 1.39726562 -10.0390625 0.92578125 C-6.7307903 -0.57625038 -3.51657722 -0.59606574 0 0 Z " fill="#000000" transform="translate(485,241)"/>
<path d="M0 0 C0.79245117 0.11827148 1.58490234 0.23654297 2.40136719 0.35839844 C58.44873216 8.97263951 111.78052855 39.45389074 147 84 C147.65484375 84.78761719 148.3096875 85.57523437 148.984375 86.38671875 C164.7895327 105.51095957 184.71473827 134.29001357 187.375 159.5625 C186.91433996 163.78521702 186.32068159 165.32725628 183 168 C179.04691071 168.76160436 175.50911447 168.91394478 172.00048828 166.7890625 C169.59428744 164.63716602 168.88214301 162.92620352 167.7734375 159.90625 C167.38655762 158.88490967 166.99967773 157.86356934 166.60107422 156.8112793 C166.19646973 155.71855713 165.79186523 154.62583496 165.375 153.5 C144.75796184 99.98728076 103.24671773 57.49029429 50.90283203 34.21313477 C33.93969522 26.98591732 16.20568664 21.86083794 -2 19 C-2.6997998 18.88430664 -3.39959961 18.76861328 -4.12060547 18.64941406 C-48.81893507 11.5188403 -96.38017999 20.48024587 -136 42 C-136.99290039 42.52762939 -136.99290039 42.52762939 -138.00585938 43.06591797 C-153.02880992 51.06258423 -166.26824955 60.74030926 -179 72 C-179.53431641 72.47115234 -180.06863281 72.94230469 -180.61914062 73.42773438 C-186.83808539 78.93980997 -192.74264522 84.54531805 -198 91 C-198.8891959 92.05349263 -199.7785316 93.10686728 -200.66796875 94.16015625 C-226.69874462 125.40738293 -249.6410905 170.84148364 -249.0625 212.5 C-249.05347656 213.3559375 -249.04445312 214.211875 -249.03515625 215.09375 C-249.02355469 215.7228125 -249.01195312 216.351875 -249 217 C-248.43152344 216.55527344 -247.86304688 216.11054688 -247.27734375 215.65234375 C-240.97290958 211.03189867 -240.97290958 211.03189867 -236.1875 210.875 C-232.61660618 212.13531547 -231.04879923 212.8038732 -229 216 C-228.26604365 221.05614372 -228.06490349 222.70818148 -231.109375 226.9140625 C-234.02079663 230.20397412 -237.31983161 232.85422559 -240.8125 235.5 C-241.4327002 235.9741333 -242.05290039 236.4482666 -242.69189453 236.93676758 C-243.91406175 237.87073607 -245.13764328 238.80285742 -246.36279297 239.73291016 C-247.74107661 240.79961044 -249.08067213 241.91603164 -250.41015625 243.04296875 C-251.05855469 243.58566406 -251.70695312 244.12835938 -252.375 244.6875 C-252.89835937 245.14511719 -253.42171875 245.60273438 -253.9609375 246.07421875 C-257.2692097 247.57625038 -260.48342278 247.59606574 -264 247 C-267.16796875 245.19921875 -267.16796875 245.19921875 -270.1875 242.6875 C-270.72922852 242.24543213 -271.27095703 241.80336426 -271.82910156 241.34790039 C-273.57001874 239.9180758 -275.28519168 238.46099193 -277 237 C-278.22963832 235.97296327 -279.46011158 234.94692538 -280.69140625 233.921875 C-290.95865609 225.33414014 -290.95865609 225.33414014 -291.23828125 223.07421875 C-291.43654506 216.69847209 -291.43654506 216.69847209 -289.4375 213.5 C-286.13831882 211.46973466 -283.87929749 211 -280 211 C-276.8125 212.75 -276.8125 212.75 -274 215 C-273.21625 215.5775 -272.4325 216.155 -271.625 216.75 C-270.820625 217.36875 -270.820625 217.36875 -270 218 C-268.80872407 215.61744814 -268.68411211 213.76321458 -268.421875 211.109375 C-263.68956428 166.07864945 -248.47910411 123.56559819 -220 88 C-219.23042969 87.01902344 -218.46085937 86.03804688 -217.66796875 85.02734375 C-199.17253063 61.86638971 -176.99389625 42.37685423 -151 28 C-150.3503125 27.63213379 -149.700625 27.26426758 -149.03125 26.88525391 C-124.58879165 13.08349077 -97.71800281 4.23753402 -70 0 C-69.25991699 -0.11714355 -68.51983398 -0.23428711 -67.75732422 -0.35498047 C-45.82854975 -3.67961782 -21.89293243 -3.44264684 0 0 Z " fill="#000000" transform="translate(291,24)"/>
<path d="M0 0 C10.42336184 10.55943706 12.6596679 28.17522715 12.61279297 42.25976562 C12.15057565 60.87948056 4.61524143 76.8607395 -7.75390625 90.640625 C-8.29402344 91.27355469 -8.83414063 91.90648437 -9.390625 92.55859375 C-14.45488951 98.11334392 -21.63390648 103.90689275 -29.234375 104.99609375 C-31.37890625 104.828125 -31.37890625 104.828125 -34.75390625 103.640625 C-35.96484375 101.56640625 -35.96484375 101.56640625 -36.75390625 99.640625 C-39.8701372 100.02682456 -42.80216299 100.55043411 -45.75390625 101.640625 C-47.93337271 104.49313885 -47.93337271 104.49313885 -49.75390625 107.640625 C-54.9787107 111.4311694 -59.36339397 112.35080585 -65.75390625 112.640625 C-65.79515625 113.878125 -65.83640625 115.115625 -65.87890625 116.390625 C-66.33684085 119.97141915 -66.63253107 120.52213971 -69.37890625 123.203125 C-73.48506443 124.95204423 -75.49586238 124.90226763 -79.75390625 123.640625 C-81.9609375 122.1875 -81.9609375 122.1875 -83.75390625 119.640625 C-84.12029895 116.38754841 -83.91858459 113.15766635 -83.81640625 109.890625 C-83.75979606 102.88549398 -83.75979606 102.88549398 -86.97265625 96.93359375 C-89.80156072 95.03934545 -89.80156072 95.03934545 -92.82421875 93.41015625 C-101.59533107 88.11240441 -106.01162332 77.31937625 -108.50390625 67.765625 C-109.678885 53.07839057 -107.41925562 41.16393519 -97.75390625 29.640625 C-88.56041408 18.95629626 -77.39134542 14.06616304 -64.06640625 10.30859375 C-52.54880126 7.03824405 -42.62065146 3.38381402 -32.671875 -3.48828125 C-22.03905939 -10.30637854 -9.54041186 -7.3943504 0 0 Z " fill="#010201" transform="translate(392.75390625,253.359375)"/>
<path d="M0 0 C4.40448752 2.00203978 5.93755183 6.5354066 7.67529297 10.77270508 C9.9016496 16.73989712 10.43454387 22.20643522 10.390625 28.546875 C10.38490479 29.51149658 10.37918457 30.47611816 10.37329102 31.4699707 C10.01267825 45.9952585 4.09077297 58.57187049 -5.921875 69.109375 C-9.68187327 72.68505963 -13.80118028 75.62685976 -18.10546875 78.51171875 C-20.0203611 79.70630933 -20.0203611 79.70630933 -21.109375 80.859375 C-21.34012582 82.20684584 -21.52090563 83.56315065 -21.671875 84.921875 C-21.81625 86.22125 -21.960625 87.520625 -22.109375 88.859375 C-23.965625 89.16875 -23.965625 89.16875 -25.859375 89.484375 C-30.52323281 90.62787779 -31.59545785 92.80466991 -34.109375 96.859375 C-39.58653304 100.91247195 -44.38101601 101.58861609 -51.109375 101.859375 C-51.55843604 83.37302894 -48.16061155 67.91632239 -38.46484375 51.89453125 C-36.86314841 48.30802611 -36.79040768 45.74796184 -37.109375 41.859375 C-38.75319225 38.95852102 -40.25012246 38.81767205 -43.484375 37.859375 C-47.18129884 37.47281341 -47.18129884 37.47281341 -49.58203125 39.91796875 C-52.27561919 43.05285548 -54.2849165 46.27153123 -56.171875 49.921875 C-56.51476562 50.57293213 -56.85765625 51.22398926 -57.2109375 51.89477539 C-60.17409597 57.67392025 -62.34022127 63.6091411 -64.109375 69.859375 C-69.45396614 67.43104697 -72.61208529 63.4778542 -74.921875 58.171875 C-77.38103331 50.63712832 -76.97780694 43.95629427 -73.734375 36.734375 C-67.88875798 26.20406958 -59.42459429 20.40575924 -48.109375 16.859375 C-43.53255788 15.60561441 -38.93605419 14.42588633 -34.34277344 13.23413086 C-25.07329829 10.74528155 -16.87777526 7.21336868 -8.98828125 1.6640625 C-5.49247241 -0.52734006 -3.92607582 -0.74925111 0 0 Z " fill="#BCF890" transform="translate(377.109375,264.140625)"/>
<path d="M0 0 C3.8125 1 3.8125 1 5.875 2.75 C6.8125 5 6.8125 5 7 7.4375 C4.28445326 13.29736401 -3.28768663 15.75876609 -9.02734375 17.9765625 C-12.34643533 19.05147226 -15.67754108 19.91195666 -19.06176758 20.75317383 C-33.89176511 24.44076572 -47.00985373 29.54769435 -55.625 42.9375 C-58.17678672 47.56305278 -59.42887023 51.80257899 -60.1875 57 C-60.37054688 58.13953125 -60.55359375 59.2790625 -60.7421875 60.453125 C-61.24459865 63.63276814 -61.72467581 66.81439096 -62.1875 70 C-67.53209114 67.57167197 -70.69021029 63.6184792 -73 58.3125 C-75.45915831 50.77775332 -75.05593194 44.09691927 -71.8125 36.875 C-65.96688298 26.34469458 -57.50271929 20.54638424 -46.1875 17 C-41.61068288 15.74623941 -37.01417919 14.56651133 -32.42089844 13.37475586 C-23.15863593 10.88784314 -14.93531954 7.3717263 -7.07421875 1.7890625 C-4.21284424 0.01570726 -3.23058918 -0.51586254 0 0 Z " fill="#D6FBBB" transform="translate(375.1875,264)"/>
<path d="M0 0 C3.72194299 0.16541969 5.47178588 0.45933577 8.11303711 3.1628418 C10.21692091 6.32615318 10.79653268 8.53353421 11.37890625 12.26953125 C11.67486694 14.08469238 11.67486694 14.08469238 11.97680664 15.93652344 C12.26672485 17.85513184 12.26672485 17.85513184 12.5625 19.8125 C12.7749434 21.14252009 12.98906367 22.47227339 13.20483398 23.80175781 C13.6251448 26.39585711 14.03913401 28.99065553 14.44921875 31.58642578 C15.0794779 35.49257977 15.80012343 39.3676802 16.5625 43.25 C18.06010123 51.06798606 19.28008172 58.92580224 20.51757812 66.78857422 C21.44889324 72.66995406 22.43885496 78.52733943 23.5625 84.375 C29.9658142 117.86925887 29.9658142 117.86925887 26.3125 123.6875 C23.38525304 125.34891044 22.17419317 124.78433629 19 124 C15.7170038 107.34352171 12.88363794 90.62533709 10.125 73.875 C9.3555187 69.21499278 8.58414975 64.55529796 7.81207657 59.89571953 C7.48637209 57.93002165 7.1608947 55.96428614 6.8354187 53.99855042 C5.59257616 46.51048842 4.32465326 39.02755288 3.015625 31.55078125 C2.87119965 30.72344482 2.72677429 29.8961084 2.57797241 29.04370117 C1.9349481 25.36541634 1.28562694 21.68843452 0.62548828 18.01318359 C0.40618652 16.7648877 0.18688477 15.5165918 -0.0390625 14.23046875 C-0.22678223 13.18270264 -0.41450195 12.13493652 -0.60791016 11.05541992 C-1.04316844 7.66360337 -1.13193936 4.4159678 -1 1 C-0.67 0.67 -0.34 0.34 0 0 Z " fill="#EBF5FD" transform="translate(194,247)"/>
<path d="M0 0 C0 0.99 0 1.98 0 3 C-0.556875 3.20753906 -1.11375 3.41507813 -1.6875 3.62890625 C-11.2159079 7.47567903 -17.14296986 13.98159699 -23.83984375 21.5859375 C-25.70974699 23.67563046 -27.62304821 25.66335597 -29.625 27.625 C-31.99671776 29.9532 -34.21043614 32.35298523 -36.375 34.875 C-38.95683538 37.87942279 -41.66316895 40.67279177 -44.5 43.4375 C-53.56574674 52.091207 -53.56574674 52.091207 -57.09765625 63.578125 C-57.08605469 64.45984375 -57.07445312 65.3415625 -57.0625 66.25 C-57.04896484 67.58804688 -57.04896484 67.58804688 -57.03515625 68.953125 C-57.02355469 69.62859375 -57.01195312 70.3040625 -57 71 C-60.65797894 69.468169 -62.97331774 67.30421482 -65.6875 64.4375 C-66.47511719 63.63183594 -67.26273438 62.82617188 -68.07421875 61.99609375 C-70.62486745 58.02784314 -71.66963808 54.72188481 -71 50 C-69.32972308 46.99576123 -67.0539533 44.84100762 -64.5625 42.5 C-63.16992172 41.10742172 -61.77801679 39.71416984 -60.38671875 38.3203125 C-59.66145996 37.61036133 -58.93620117 36.90041016 -58.18896484 36.16894531 C-54.65164672 32.66397831 -51.27231017 29.01485692 -47.875 25.375 C-47.20984375 24.67294434 -46.5446875 23.97088867 -45.859375 23.24755859 C-42.6479734 19.85783308 -39.48693179 16.44142961 -36.41796875 12.921875 C-35.85029785 12.28072754 -35.28262695 11.63958008 -34.69775391 10.97900391 C-33.65001213 9.79110438 -32.61570197 8.59113823 -31.59912109 7.37646484 C-25.14650251 0.11809002 -9.08050391 -4.54025195 0 0 Z " fill="#EAF3FB" transform="translate(197,165)"/>
<path d="M0 0 C0.61875 0.515625 1.2375 1.03125 1.875 1.5625 C1.875 1.8925 1.875 2.2225 1.875 2.5625 C1.00488281 2.70945313 1.00488281 2.70945313 0.1171875 2.859375 C-5.10116583 3.85826772 -9.09742705 4.90107005 -13.125 8.5625 C-15.56187496 12.55809678 -17.37724564 16.83183178 -19.23046875 21.12109375 C-24.33404878 32.28626372 -32.6387532 39.03990699 -43.81640625 43.6796875 C-48.07356373 44.81559965 -51.99226026 44.81715488 -56.375 44.75 C-57.1896875 44.74935547 -58.004375 44.74871094 -58.84375 44.74804688 C-64.84330357 44.70334821 -64.84330357 44.70334821 -67.125 43.5625 C-66.795 42.5725 -66.465 41.5825 -66.125 40.5625 C-63.9375 39.60546875 -63.9375 39.60546875 -61.125 38.75 C-55.41292776 36.79664887 -50.87302291 34.27245707 -46.125 30.5625 C-45.50882812 30.08425781 -44.89265625 29.60601562 -44.2578125 29.11328125 C-37.4811617 23.13476932 -34.29112356 14.40134054 -30.671875 6.31640625 C-29.04809628 3.42558808 -28.0026969 2.15718041 -25.125 0.5625 C-17.44709503 -1.54273201 -7.440407 -3.42258722 0 0 Z " fill="#E9F2FA" transform="translate(316.125,145.4375)"/>
<path d="M0 0 C6.6 0.66 13.2 1.32 20 2 C16.88378175 8.23243651 15.20554329 10.43076004 9 13 C5.66165618 13.64582469 2.39662858 13.92343665 -1 14 C-1.02705729 12.22925083 -1.04642195 10.45838289 -1.0625 8.6875 C-1.07410156 7.70136719 -1.08570313 6.71523438 -1.09765625 5.69921875 C-1 3 -1 3 0 0 Z " fill="#CAE2F8" transform="translate(327,352)"/>
</svg>
