<svg id="Layer_1" enable-background="new 0 0 32 32" viewBox="0 0 32 32" xmlns="http://www.w3.org/2000/svg"><path d="m7 9c0-.276.224-.5.5-.5s.5.224.5.5v19.5h16v-19.5c0-.276.224-.5.5-.5s.5.224.5.5v5.323h3.5v-7.323c0-1.93-1.57-3.5-3.5-3.5h-5.13c-.248 1.924-1.879 3.421-3.87 3.421s-3.622-1.497-3.87-3.421h-5.13c-1.93 0-3.5 1.57-3.5 3.5v7.323h3.5zm11.653 5.777c.068-.265.354-.434.618-.356l1.299.359c.266.073.422.349.348.615-.072.265-.347.425-.615.348l-.134-.037 1.629 2.93c.276.497.27 1.087-.019 1.576-.297.505-.828.806-1.422.806h-2.1c-.276 0-.5-.224-.5-.5s.224-.5.5-.5h2.1c.235 0 .444-.117.56-.313.108-.184.111-.396.007-.583l-1.612-2.9-.038.147c-.07.27-.349.427-.609.359-.268-.069-.429-.343-.359-.609zm-6.265-1.701c.266-.067.54.092.609.359l.035.135 1.529-2.735c.293-.522.83-.835 1.439-.835.608 0 1.146.313 1.438.836l1.008 1.803c.135.241.049.546-.192.681-.239.134-.545.05-.681-.192l-1.008-1.803c-.226-.406-.904-.406-1.131 0l-1.552 2.777.145-.04c.266-.072.542.083.615.348.074.267-.083.542-.349.615l-1.299.359c-.263.077-.55-.092-.617-.356l-.348-1.342c-.069-.267.092-.54.359-.61zm-2.184 5.557 1.093-1.955c.135-.241.437-.327.681-.192.241.135.327.439.192.681l-1.093 1.955c-.104.187-.102.399.006.584.115.195.324.313.56.313h3.177l-.13-.134c-.192-.198-.187-.515.012-.707.197-.19.514-.188.707.012l.951.981c.188.193.188.501 0 .695l-.951.982c-.192.199-.509.204-.707.012s-.204-.509-.012-.707l.13-.135h-3.178c-.594 0-1.125-.302-1.422-.807-.288-.491-.294-1.081-.016-1.578z" fill="#a2d29b "/><path d="m16 5.921c1.439 0 2.632-1.049 2.87-2.421h-5.74c.238 1.372 1.431 2.421 2.87 2.421z" fill="#f7edc4"/><g fill="#212121"><path d="m11.642 21.018h3.178l-.13.135c-.192.198-.187.515.012.707.198.192.515.187.707-.012l.951-.982c.188-.194.188-.502 0-.695l-.951-.981c-.193-.199-.51-.202-.707-.012-.199.192-.204.509-.012.707l.13.134h-3.177c-.235 0-.444-.117-.56-.313-.108-.185-.11-.397-.006-.584l1.093-1.955c.135-.241.048-.546-.192-.681-.244-.135-.545-.049-.681.192l-1.093 1.955c-.278.497-.271 1.087.017 1.578.296.505.827.807 1.421.807z"/><path d="m12.377 15.027c.067.265.354.433.617.356l1.299-.359c.266-.073.422-.349.349-.615-.074-.265-.35-.42-.615-.348l-.145.04 1.552-2.777c.227-.406.905-.406 1.131 0l1.008 1.803c.136.242.441.326.681.192.241-.135.327-.439.192-.681l-1.008-1.803c-.292-.522-.83-.835-1.438-.835-.608 0-1.146.313-1.438.836l-1.529 2.735-.035-.135c-.069-.268-.343-.427-.609-.359-.267.069-.428.343-.358.609z"/><path d="m18.665 16.729c.261.068.54-.089.609-.359l.038-.147 1.612 2.9c.104.187.102.399-.007.583-.115.195-.324.313-.56.313h-2.1c-.276 0-.5.224-.5.5s.224.5.5.5h2.1c.594 0 1.125-.301 1.422-.806.288-.489.295-1.079.019-1.576l-1.629-2.93.134.037c.269.077.543-.083.615-.348.074-.267-.082-.542-.348-.615l-1.299-.359c-.264-.077-.55.091-.618.356l-.348 1.342c-.069.266.092.539.36.609z"/><path d="m3 15.323h4v13.677c0 .276.224.5.5.5h17c.276 0 .5-.224.5-.5v-13.677h4c.276 0 .5-.224.5-.5v-7.823c0-2.481-2.019-4.5-4.5-4.5h-18c-2.481 0-4.5 2.019-4.5 4.5v7.823c0 .277.224.5.5.5zm15.87-11.823c-.238 1.372-1.431 2.421-2.87 2.421s-2.632-1.049-2.87-2.421zm-15.37 3.5c0-1.93 1.57-3.5 3.5-3.5h5.13c.249 1.924 1.879 3.421 3.87 3.421s3.622-1.497 3.87-3.421h5.13c1.93 0 3.5 1.57 3.5 3.5v7.323h-3.5v-5.323c0-.276-.224-.5-.5-.5s-.5.224-.5.5v19.5h-16v-19.5c0-.276-.224-.5-.5-.5s-.5.224-.5.5v5.323h-3.5z"/></g></svg>